<?xml version="1.0" encoding="UTF-8" standalone="no"?>
<svg
   xmlns:dc="http://purl.org/dc/elements/1.1/"
   xmlns:cc="http://creativecommons.org/ns#"
   xmlns:rdf="http://www.w3.org/1999/02/22-rdf-syntax-ns#"
   xmlns:svg="http://www.w3.org/2000/svg"
   xmlns="http://www.w3.org/2000/svg"
   xmlns:xlink="http://www.w3.org/1999/xlink"
   xmlns:sodipodi="http://sodipodi.sourceforge.net/DTD/sodipodi-0.dtd"
   xmlns:inkscape="http://www.inkscape.org/namespaces/inkscape"
   inkscape:version="1.0beta2 (unknown)"
   sodipodi:docname="velocityProfile.svg"
   id="svg1513"
   width="460.8pt"
   viewBox="0 0 460.8 345.6"
   version="1.1"
   height="345.6pt">
  <metadata
     id="metadata1517">
    <rdf:RDF>
      <cc:Work
         rdf:about="">
        <dc:format>image/svg+xml</dc:format>
        <dc:type
           rdf:resource="http://purl.org/dc/dcmitype/StillImage" />
      </cc:Work>
    </rdf:RDF>
  </metadata>
  <sodipodi:namedview
     inkscape:current-layer="svg1513"
     inkscape:window-maximized="1"
     inkscape:window-y="0"
     inkscape:window-x="0"
     inkscape:cy="278.88798"
     inkscape:cx="313.61853"
     inkscape:zoom="1.697179"
     showgrid="false"
     id="namedview1515"
     inkscape:window-height="836"
     inkscape:window-width="1600"
     inkscape:pageshadow="2"
     inkscape:pageopacity="0"
     guidetolerance="10"
     gridtolerance="10"
     objecttolerance="10"
     borderopacity="1"
     inkscape:document-rotation="0"
     bordercolor="#666666"
     pagecolor="#ffffff" />
  <defs
     id="defs1196">
    <marker
       inkscape:isstock="true"
       style="overflow:visible;"
       id="marker2083"
       refX="0.0"
       refY="0.0"
       orient="auto"
       inkscape:stockid="Arrow2Mend">
      <path
         transform="scale(0.6) rotate(180) translate(0,0)"
         d="M 8.7185878,4.0337352 L -2.2072895,0.016013256 L 8.7185884,-4.0017078 C 6.9730900,-1.6296469 6.9831476,1.6157441 8.7185878,4.0337352 z "
         style="fill-rule:evenodd;stroke-width:0.625;stroke-linejoin:round;stroke:#000000;stroke-opacity:1;fill:#000000;fill-opacity:1"
         id="path2081" />
    </marker>
    <inkscape:path-effect
       only_selected="false"
       apply_with_weight="true"
       apply_no_weight="true"
       helper_size="0"
       steps="2"
       weight="33.333333"
       lpeversion="1"
       is_visible="true"
       id="path-effect2079"
       effect="bspline" />
    <marker
       inkscape:isstock="true"
       style="overflow:visible;"
       id="Arrow2Mend"
       refX="0.0"
       refY="0.0"
       orient="auto"
       inkscape:stockid="Arrow2Mend">
      <path
         transform="scale(0.6) rotate(180) translate(0,0)"
         d="M 8.7185878,4.0337352 L -2.2072895,0.016013256 L 8.7185884,-4.0017078 C 6.9730900,-1.6296469 6.9831476,1.6157441 8.7185878,4.0337352 z "
         style="fill-rule:evenodd;stroke-width:0.625;stroke-linejoin:round;stroke:#000000;stroke-opacity:1;fill:#000000;fill-opacity:1"
         id="path1558" />
    </marker>
    <inkscape:path-effect
       only_selected="false"
       apply_with_weight="true"
       apply_no_weight="true"
       helper_size="0"
       steps="2"
       weight="33.333333"
       lpeversion="1"
       is_visible="true"
       id="path-effect1529"
       effect="bspline" />
    <style
       id="style1194"
       type="text/css">
*{stroke-linecap:butt;stroke-linejoin:round;white-space:pre;}
  </style>
  </defs>
  <g
     id="figure_1">
    <g
       id="patch_1">
      <path
         inkscape:connector-curvature="0"
         id="path1198"
         style="fill:#ffffff"
         d="M 0,345.6 H 460.8 V 0 H 0 Z" />
    </g>
    <g
       id="axes_1">
      <g
         id="patch_2">
        <path
           inkscape:connector-curvature="0"
           id="path1201"
           style="fill:#ffffff"
           d="M 57.6,307.584 H 414.72 V 41.472 H 57.6 Z" />
      </g>
      <g
         id="matplotlib.axis_1">
        <g
           id="xtick_1">
          <g
             id="line2d_1">
            <defs
               id="defs1205">
              <path
                 inkscape:connector-curvature="0"
                 style="stroke:#000000;stroke-width:0.8"
                 id="m1767b6ef9b"
                 d="M 0,0 V 3.5" />
            </defs>
            <g
               id="g1209">
              <use
                 height="100%"
                 width="100%"
                 id="use1207"
                 y="307.58401"
                 xlink:href="#m1767b6ef9b"
                 x="73.832726"
                 style="stroke:#000000;stroke-width:0.8" />
            </g>
          </g>
          <g
             id="text_1">
            <text
               id="text1212"
               y="325.2218"
               x="73.832726"
               style="font-style:normal;font-weight:normal;font-size:14px;font-family:'DejaVu Sans';text-anchor:middle">0</text>
          </g>
        </g>
        <g
           id="xtick_2">
          <g
             id="line2d_2">
            <g
               id="g1218">
              <use
                 height="100%"
                 width="100%"
                 id="use1216"
                 y="307.58401"
                 xlink:href="#m1767b6ef9b"
                 x="155.40422"
                 style="stroke:#000000;stroke-width:0.8" />
            </g>
          </g>
          <g
             id="text_2">
            <text
               id="text1221"
               y="325.2218"
               x="155.40422"
               style="font-style:normal;font-weight:normal;font-size:14px;font-family:'DejaVu Sans';text-anchor:middle">50</text>
          </g>
        </g>
        <g
           id="xtick_3">
          <g
             id="line2d_3">
            <g
               id="g1227">
              <use
                 height="100%"
                 width="100%"
                 id="use1225"
                 y="307.58401"
                 xlink:href="#m1767b6ef9b"
                 x="236.97571"
                 style="stroke:#000000;stroke-width:0.8" />
            </g>
          </g>
          <g
             id="text_3">
            <text
               id="text1230"
               y="325.2218"
               x="236.97571"
               style="font-style:normal;font-weight:normal;font-size:14px;font-family:'DejaVu Sans';text-anchor:middle">100</text>
          </g>
        </g>
        <g
           id="xtick_4">
          <g
             id="line2d_4">
            <g
               id="g1236">
              <use
                 height="100%"
                 width="100%"
                 id="use1234"
                 y="307.58401"
                 xlink:href="#m1767b6ef9b"
                 x="318.54721"
                 style="stroke:#000000;stroke-width:0.8" />
            </g>
          </g>
          <g
             id="text_4">
            <text
               id="text1239"
               y="325.2218"
               x="318.54721"
               style="font-style:normal;font-weight:normal;font-size:14px;font-family:'DejaVu Sans';text-anchor:middle">150</text>
          </g>
        </g>
        <g
           id="xtick_5">
          <g
             id="line2d_5">
            <g
               id="g1245">
              <use
                 height="100%"
                 width="100%"
                 id="use1243"
                 y="307.58401"
                 xlink:href="#m1767b6ef9b"
                 x="400.11871"
                 style="stroke:#000000;stroke-width:0.8" />
            </g>
          </g>
          <g
             id="text_5">
            <text
               id="text1248"
               y="325.2218"
               x="400.11871"
               style="font-style:normal;font-weight:normal;font-size:14px;font-family:'DejaVu Sans';text-anchor:middle">200</text>
          </g>
        </g>
        <g
           id="text_6">
          <text
             id="text1252"
             y="342.77118"
             x="236.16"
             style="font-style:normal;font-weight:normal;font-size:14px;font-family:'DejaVu Sans';text-anchor:middle">Spatial position</text>
        </g>
      </g>
      <g
         id="matplotlib.axis_2">
        <g
           id="ytick_1">
          <g
             id="line2d_6">
            <defs
               id="defs1257">
              <path
                 inkscape:connector-curvature="0"
                 style="stroke:#000000;stroke-width:0.8"
                 id="m1e260b7b1d"
                 d="M 0,0 H -3.5" />
            </defs>
            <g
               id="g1261">
              <use
                 height="100%"
                 width="100%"
                 id="use1259"
                 y="295.48801"
                 xlink:href="#m1e260b7b1d"
                 x="57.599998"
                 style="stroke:#000000;stroke-width:0.8" />
            </g>
          </g>
          <g
             id="text_7">
            <text
               id="text1264"
               y="300.80692"
               x="50.599998"
               style="font-style:normal;font-weight:normal;font-size:14px;font-family:'DejaVu Sans';text-anchor:end">0.0</text>
          </g>
        </g>
        <g
           id="ytick_2">
          <g
             id="line2d_7">
            <g
               id="g1270">
              <use
                 height="100%"
                 width="100%"
                 id="use1268"
                 y="265.71753"
                 xlink:href="#m1e260b7b1d"
                 x="57.599998"
                 style="stroke:#000000;stroke-width:0.8" />
            </g>
          </g>
          <g
             id="text_8">
            <text
               id="text1273"
               y="271.03644"
               x="50.599998"
               style="font-style:normal;font-weight:normal;font-size:14px;font-family:'DejaVu Sans';text-anchor:end">0.2</text>
          </g>
        </g>
        <g
           id="ytick_3">
          <g
             id="line2d_8">
            <g
               id="g1279">
              <use
                 height="100%"
                 width="100%"
                 id="use1277"
                 y="235.94704"
                 xlink:href="#m1e260b7b1d"
                 x="57.599998"
                 style="stroke:#000000;stroke-width:0.8" />
            </g>
          </g>
          <g
             id="text_9">
            <text
               id="text1282"
               y="241.26595"
               x="50.599998"
               style="font-style:normal;font-weight:normal;font-size:14px;font-family:'DejaVu Sans';text-anchor:end">0.4</text>
          </g>
        </g>
        <g
           id="ytick_4">
          <g
             id="line2d_9">
            <g
               id="g1288">
              <use
                 height="100%"
                 width="100%"
                 id="use1286"
                 y="206.17656"
                 xlink:href="#m1e260b7b1d"
                 x="57.599998"
                 style="stroke:#000000;stroke-width:0.8" />
            </g>
          </g>
          <g
             id="text_10">
            <text
               id="text1291"
               y="211.49545"
               x="50.599998"
               style="font-style:normal;font-weight:normal;font-size:14px;font-family:'DejaVu Sans';text-anchor:end">0.6</text>
          </g>
        </g>
        <g
           id="ytick_5">
          <g
             id="line2d_10">
            <g
               id="g1297">
              <use
                 height="100%"
                 width="100%"
                 id="use1295"
                 y="176.40607"
                 xlink:href="#m1e260b7b1d"
                 x="57.599998"
                 style="stroke:#000000;stroke-width:0.8" />
            </g>
          </g>
          <g
             id="text_11">
            <text
               id="text1300"
               y="181.72498"
               x="50.599998"
               style="font-style:normal;font-weight:normal;font-size:14px;font-family:'DejaVu Sans';text-anchor:end">0.8</text>
          </g>
        </g>
        <g
           id="ytick_6">
          <g
             id="line2d_11">
            <g
               id="g1306">
              <use
                 height="100%"
                 width="100%"
                 id="use1304"
                 y="146.63559"
                 xlink:href="#m1e260b7b1d"
                 x="57.599998"
                 style="stroke:#000000;stroke-width:0.8" />
            </g>
          </g>
          <g
             id="text_12">
            <text
               id="text1309"
               y="151.9545"
               x="50.599998"
               style="font-style:normal;font-weight:normal;font-size:14px;font-family:'DejaVu Sans';text-anchor:end">1.0</text>
          </g>
        </g>
        <g
           id="ytick_7">
          <g
             id="line2d_12">
            <g
               id="g1315">
              <use
                 height="100%"
                 width="100%"
                 id="use1313"
                 y="116.8651"
                 xlink:href="#m1e260b7b1d"
                 x="57.599998"
                 style="stroke:#000000;stroke-width:0.8" />
            </g>
          </g>
          <g
             id="text_13">
            <text
               id="text1318"
               y="122.18401"
               x="50.599998"
               style="font-style:normal;font-weight:normal;font-size:14px;font-family:'DejaVu Sans';text-anchor:end">1.2</text>
          </g>
        </g>
        <g
           id="ytick_8">
          <g
             id="line2d_13">
            <g
               id="g1324">
              <use
                 height="100%"
                 width="100%"
                 id="use1322"
                 y="87.094627"
                 xlink:href="#m1e260b7b1d"
                 x="57.599998"
                 style="stroke:#000000;stroke-width:0.8" />
            </g>
          </g>
          <g
             id="text_14">
            <text
               id="text1327"
               y="92.413528"
               x="50.599998"
               style="font-style:normal;font-weight:normal;font-size:14px;font-family:'DejaVu Sans';text-anchor:end">1.4</text>
          </g>
        </g>
        <g
           id="ytick_9">
          <g
             id="line2d_14">
            <g
               id="g1333">
              <use
                 height="100%"
                 width="100%"
                 id="use1331"
                 y="57.324142"
                 xlink:href="#m1e260b7b1d"
                 x="57.599998"
                 style="stroke:#000000;stroke-width:0.8" />
            </g>
          </g>
          <g
             id="text_15">
            <text
               id="text1336"
               y="62.643047"
               x="50.599998"
               style="font-style:normal;font-weight:normal;font-size:14px;font-family:'DejaVu Sans';text-anchor:end">1.6</text>
          </g>
        </g>
        <g
           id="text_16">
          <!-- $u(x, t)$ -->
          <g
             id="g1346"
             transform="rotate(-90,108.19603,86.771969)">
            <text
               id="text1344"><tspan
                 id="tspan1340"
                 y="-0.375"
                 x="0 14.334961 29.797852"
                 style="font-style:oblique;font-size:14px;font-family:'DejaVu Sans'">uxt</tspan><tspan
                 id="tspan1342"
                 y="-0.375"
                 x="8.8730469 22.620117 35.287109"
                 style="font-size:14px;font-family:'DejaVu Sans'">(,)</tspan></text>
          </g>
        </g>
      </g>
      <g
         id="line2d_15">
        <path
           inkscape:connector-curvature="0"
           id="path1350"
           style="fill:none;stroke:#808080;stroke-linecap:square;stroke-opacity:0.7"
           d="m 73.832727,295.488 75.045773,-0.10152 8.15715,-0.26629 4.89429,-0.38181 3.26286,-0.42527 3.26286,-0.6298 3.26286,-0.91172 3.26286,-1.2898 1.63143,-0.82197 1.63143,-0.96099 1.63143,-1.11684 1.63143,-1.2904 1.63143,-1.48153 1.63143,-1.69126 1.63143,-1.91856 1.63143,-2.16312 1.63143,-2.42391 1.63143,-2.69929 1.63143,-2.98717 1.63143,-3.28503 1.63143,-3.58942 1.63143,-3.89726 3.26286,-8.7095 3.26286,-9.86892 3.26286,-10.88334 3.26286,-11.66646 9.78858,-36.1695 3.26286,-10.95791 1.63143,-4.99475 1.63143,-4.58912 1.63143,-4.12395 1.63142,-3.60268 1.63143,-3.02974 1.63143,-2.41052 1.63144,-1.75169 1.63142,-1.06087 1.63143,-0.34668 1.63143,0.38225 1.63143,1.11536 1.63143,1.84219 1.63143,2.55252 1.63143,3.23501 1.63143,3.87895 1.63143,4.4742 1.63143,5.01112 1.63143,5.48164 3.26286,12.07431 4.89429,19.67085 4.89429,19.62857 3.26286,12.16794 3.26286,11.00049 1.63143,4.99311 1.63143,4.63511 1.63143,4.27207 1.63143,3.9102 1.63143,3.55534 1.63143,3.21194 1.63143,2.88357 1.63143,2.57276 1.63143,2.28206 1.63143,2.01218 1.63143,1.76405 1.63143,1.53765 1.63143,1.33268 1.63143,1.14869 1.63143,0.98466 1.63143,0.83923 3.26286,1.31139 3.26286,0.92244 3.26286,0.635 3.26286,0.42765 4.89429,0.38315 6.52572,0.23548 11.42001,0.11447 44.0486,0.0183 h 19.57716 v 0"
           clip-path="url(#pb742183ebc)" />
      </g>
      <g
         id="line2d_16">
        <path
           inkscape:connector-curvature="0"
           id="path1353"
           style="fill:none;stroke:#808080;stroke-linecap:square;stroke-opacity:0.7"
           d="m 73.832727,295.488 75.045773,-0.10152 8.15715,-0.26615 4.89429,-0.38106 3.26286,-0.42423 3.26286,-0.62726 3.26286,-0.90636 3.26286,-1.27954 1.63143,-0.81363 1.63143,-0.94982 1.63143,-1.10196 1.63143,-1.27045 1.63143,-1.45578 1.63143,-1.65807 1.63143,-1.87628 1.63143,-2.11028 1.63143,-2.35842 1.63143,-2.61936 1.63143,-2.89101 1.63143,-3.17055 1.63143,-3.45546 1.63143,-3.74245 3.26286,-8.33544 3.26286,-9.41223 3.26286,-10.36102 3.26286,-11.11169 13.05144,-45.76958 3.26286,-9.80476 1.63143,-4.35602 1.63142,-3.91899 1.63143,-3.42896 1.63143,-2.88938 1.63144,-2.30334 1.63142,-1.67563 1.63143,-1.0116 1.63143,-0.31795 1.63143,0.39803 1.63143,1.12756 1.63143,1.86095 1.63143,2.58795 1.63143,3.29678 1.63143,3.97555 1.63143,4.61145 1.63143,5.19257 1.63143,5.70626 3.26286,12.63295 4.89429,20.61204 4.89429,20.34932 3.26286,12.38169 3.26286,10.97846 1.63143,4.9035 1.63143,4.50293 1.63143,4.10535 1.63143,3.71744 1.63143,3.34471 1.63143,2.9906 1.63143,2.6582 1.63143,2.34919 1.63143,2.06444 1.63143,1.80424 1.63143,1.56801 1.63143,1.3556 1.63143,1.16581 1.63143,0.99701 1.63143,0.84846 3.26286,1.32241 3.26286,0.92809 3.26286,0.63754 3.26286,0.42884 4.89429,0.38374 6.52572,0.23578 11.42001,0.11447 44.0486,0.0183 h 19.57716 v 0"
           clip-path="url(#pb742183ebc)" />
      </g>
      <g
         id="line2d_17">
        <path
           inkscape:connector-curvature="0"
           id="path1356"
           style="fill:none;stroke:#808080;stroke-linecap:square;stroke-opacity:0.7"
           d="m 73.832727,295.488 75.045773,-0.10152 8.15715,-0.26585 4.89429,-0.38047 3.26286,-0.42303 3.26286,-0.62474 3.26286,-0.9013 3.26286,-1.26926 1.63143,-0.80574 1.63143,-0.93881 1.63143,-1.08737 1.63143,-1.2514 1.63143,-1.43092 1.63143,-1.62621 1.63143,-1.8361 1.63143,-2.06012 1.63143,-2.29664 1.63143,-2.54448 1.63143,-2.80111 1.63143,-3.06427 1.63143,-3.33177 3.26286,-7.46614 3.26286,-8.50542 3.26286,-9.45868 3.26286,-10.26858 4.89429,-16.47112 8.15715,-27.96282 3.26286,-10.36786 3.26286,-9.32412 1.63142,-4.14435 1.63143,-3.73203 1.63143,-3.26984 1.63144,-2.75942 1.63142,-2.20242 1.63143,-1.6021 1.63143,-0.96174 1.63143,-0.28624 1.63143,0.41872 1.63143,1.14572 1.63143,1.8867 1.63143,2.63142 1.63143,3.36823 1.63143,4.08391 1.63143,4.76432 1.63143,5.39367 1.63143,5.95573 3.26286,13.25263 11.42001,49.15345 3.26286,11.71811 1.63143,5.20909 1.63143,4.76372 1.63143,4.32387 1.63143,3.89755 1.63143,3.49059 1.63143,3.10744 1.63143,2.75049 1.63143,2.42109 1.63143,2.11981 1.63143,1.84636 1.63143,1.60002 1.63143,1.37941 1.63143,1.18338 1.63143,1.00996 1.63143,0.85769 3.26286,1.33387 3.26286,0.9336 3.26286,0.64021 3.26286,0.43004 4.89429,0.38448 6.52572,0.23593 11.42001,0.11447 44.0486,0.0183 h 19.57716 v 0"
           clip-path="url(#pb742183ebc)" />
      </g>
      <g
         id="line2d_18">
        <path
           inkscape:connector-curvature="0"
           id="path1359"
           style="fill:none;stroke:#808080;stroke-linecap:square;stroke-opacity:0.7"
           d="m 73.832727,295.488 75.045773,-0.10152 8.15715,-0.2657 4.89429,-0.37972 3.26286,-0.42185 3.26286,-0.62235 3.26286,-0.89609 3.26286,-1.25929 1.63143,-0.79785 1.63143,-0.92825 1.63143,-1.07322 1.63143,-1.2328 1.63143,-1.4071 1.63143,-1.5957 1.63143,-1.79769 1.63143,-2.01248 1.63143,-2.2383 1.63143,-2.47392 1.63143,-2.71701 1.63143,-2.96544 1.63143,-3.21699 3.26286,-7.186 3.26286,-8.15741 3.26286,-9.04874 3.26286,-9.81339 4.89429,-15.76377 9.78858,-32.2782 3.26286,-9.88931 3.26285,-8.88544 1.63143,-3.95114 1.63143,-3.56085 1.63144,-3.12322 1.63142,-2.63841 1.63143,-2.1073 1.63143,-1.5308 1.63143,-0.91143 1.63143,-0.25171 1.63143,0.44373 1.63143,1.16998 1.63143,1.91946 1.63143,2.68321 1.63143,3.4501 1.63143,4.20597 1.63143,4.93491 1.63143,5.61769 1.63143,6.23409 3.26286,13.94434 9.78858,44.48797 1.63143,6.51795 1.63143,6.05174 1.63143,5.55979 1.63143,5.06143 1.63143,4.57096 1.63143,4.09865 1.63143,3.65224 1.63143,3.23516 1.63143,2.85037 1.63143,2.49819 1.63143,2.1789 1.63143,1.89103 1.63143,1.63335 1.63143,1.40428 1.63143,1.20138 1.63143,1.02322 1.63143,0.86721 3.26286,1.34548 3.26286,0.9394 3.26286,0.6429 3.26286,0.43137 4.89429,0.38493 6.52572,0.23623 11.42001,0.11447 44.0486,0.0183 h 19.57716 v 0"
           clip-path="url(#pb742183ebc)" />
      </g>
      <g
         id="line2d_19">
        <path
           inkscape:connector-curvature="0"
           id="path1362"
           style="fill:none;stroke:#808080;stroke-linecap:square;stroke-opacity:0.7"
           d="m 73.832727,295.488 75.045773,-0.10152 8.15715,-0.2654 4.89429,-0.37928 3.26286,-0.42065 3.26286,-0.61983 3.26286,-0.89103 3.26286,-1.24961 1.63143,-0.78996 1.63143,-0.91783 1.63143,-1.05953 1.63143,-1.21493 1.63143,-1.38418 1.63143,-1.56622 1.63143,-1.76108 1.63143,-1.96723 1.63143,-2.18307 1.63143,-2.40739 1.63143,-2.63826 1.63143,-2.87315 3.26286,-6.45692 3.26286,-7.38888 3.26286,-8.26697 3.26286,-9.05067 3.26286,-9.70176 4.89429,-15.39476 8.15715,-26.0718 3.26286,-9.81012 3.26285,-9.0075 1.63143,-4.10029 1.63143,-3.774 1.63144,-3.40351 1.63142,-2.98747 1.63143,-2.52543 1.63143,-2.0168 1.63143,-1.46173 1.63143,-0.86067 1.63143,-0.21494 1.63143,0.4732 1.63143,1.19975 1.63143,1.95934 1.63143,2.74425 1.63143,3.54343 1.63143,4.34351 1.63143,5.12588 1.63143,5.86896 1.63143,6.54653 3.26286,14.72031 8.15715,39.2558 1.63143,7.03656 1.63143,6.52062 1.63143,5.9672 1.63143,5.40438 1.63143,4.85259 1.63143,4.3258 1.63143,3.83191 1.63143,3.37582 1.63143,2.95904 1.63143,2.5814 1.63143,2.24172 1.63143,1.9382 1.63143,1.66849 1.63143,1.43003 1.63143,1.22029 1.63143,1.0369 1.63143,0.87689 3.26286,1.35739 3.26286,0.94506 3.26286,0.64572 3.26286,0.43257 4.89429,0.38568 6.52572,0.23622 11.42001,0.11462 44.0486,0.0183 h 19.57716 v 0"
           clip-path="url(#pb742183ebc)" />
      </g>
      <g
         id="line2d_20">
        <path
           inkscape:connector-curvature="0"
           id="path1365"
           style="fill:none;stroke:#808080;stroke-linecap:square;stroke-opacity:0.7"
           d="m 73.832727,295.488 75.045773,-0.10152 8.15715,-0.26525 4.89429,-0.37853 3.26286,-0.41962 3.26286,-0.61729 3.26286,-0.88612 3.26286,-1.23994 1.63143,-0.78237 1.63143,-0.90785 1.63143,-1.04613 1.63143,-1.19752 1.63143,-1.36185 1.63143,-1.53824 1.63143,-1.72595 1.63143,-1.92406 1.63143,-2.13068 1.63143,-2.34472 1.63143,-2.56413 1.63143,-2.78667 3.26286,-6.24435 3.26286,-7.12096 3.26286,-7.94559 3.26286,-8.6836 3.26286,-9.30298 4.89429,-14.78521 9.78858,-30.17968 3.26286,-9.39527 3.26285,-8.61617 1.63143,-3.92181 1.63144,-3.61087 1.63142,-3.25793 1.63143,-2.86139 1.63143,-2.41945 1.63143,-1.93106 1.63143,-1.3946 1.63143,-0.80946 1.63143,-0.17564 1.63143,0.50669 1.63143,1.23533 1.63143,2.00668 1.63143,2.81465 1.63143,3.64986 1.63143,4.49817 1.63143,5.34097 1.63143,6.15222 1.63143,6.89991 3.26286,15.59571 6.52572,33.34562 1.63143,7.63658 1.63143,7.07034 1.63143,6.44545 1.63143,5.8045 1.63143,5.17769 1.63143,4.58406 1.63143,4.0339 1.63143,3.53152 1.63143,3.07782 1.63143,2.67116 1.63143,2.309 1.63143,1.98822 1.63143,1.70525 1.63143,1.45697 1.63143,1.23994 1.63143,1.0509 1.63143,0.88701 3.26286,1.36944 3.26286,0.95102 3.26286,0.64825 3.26286,0.43391 4.89429,0.38627 6.52572,0.23652 11.42001,0.11462 44.0486,0.0183 h 19.57716 v 0"
           clip-path="url(#pb742183ebc)" />
      </g>
      <g
         id="line2d_21">
        <path
           inkscape:connector-curvature="0"
           id="path1368"
           style="fill:none;stroke:#808080;stroke-linecap:square;stroke-opacity:0.7"
           d="m 73.832727,295.488 75.045773,-0.10137 8.15715,-0.2651 4.89429,-0.37794 3.26286,-0.41842 3.26286,-0.61491 3.26286,-0.88121 3.26286,-1.23042 3.26286,-1.67295 1.63143,-1.03318 1.63143,-1.18085 1.63143,-1.34041 1.63143,-1.51115 1.63143,-1.69231 1.63143,-1.88283 1.63143,-2.08111 1.63143,-2.28533 1.63143,-2.49432 3.26286,-5.62334 3.26286,-6.46362 3.26286,-7.26891 3.26286,-8.00841 3.26286,-8.65443 4.89429,-13.92603 8.15715,-24.44276 4.89429,-14.379 3.26285,-9.01018 3.26286,-8.25491 1.63144,-3.75718 1.63142,-3.46023 1.63143,-3.12307 1.63143,-2.74365 1.63143,-2.31971 1.63143,-1.84905 1.63143,-1.32925 1.63143,-0.7581 1.63143,-0.13412 1.63143,0.5442 1.63143,1.27656 1.63143,2.06176 1.63143,2.89577 1.63143,3.77043 1.63143,4.67337 1.63143,5.58405 1.63143,6.4736 1.63143,7.30225 3.26286,16.5896 4.89429,26.62166 1.63143,8.32635 1.63143,7.71875 1.63143,7.01392 1.63143,6.27785 1.63143,5.55741 1.63143,4.88146 1.63143,4.26254 1.63143,3.70524 1.63143,3.20836 1.63143,2.76851 1.63143,2.38119 1.63143,2.04136 1.63143,1.74395 1.63143,1.48525 1.63143,1.26019 1.63143,1.06534 1.63143,0.89743 1.63143,0.75274 3.26286,1.15227 3.26286,0.79115 3.26286,0.53349 4.89429,0.4802 6.52572,0.29859 9.78858,0.13978 26.10288,0.033 40.78574,1.5e-4 v 0"
           clip-path="url(#pb742183ebc)" />
      </g>
      <g
         id="line2d_22">
        <path
           inkscape:connector-curvature="0"
           id="path1371"
           style="fill:none;stroke:#808080;stroke-linecap:square;stroke-opacity:0.7"
           d="m 73.832727,295.488 75.045773,-0.10137 8.15715,-0.26496 4.89429,-0.37719 3.26286,-0.41738 3.26286,-0.61253 3.26286,-0.87629 3.26286,-1.22119 3.26286,-1.65598 1.63143,-1.02053 1.63143,-1.16462 1.63143,-1.31958 1.63143,-1.4851 1.63143,-1.6603 1.63143,-1.84354 1.63143,-2.03362 1.63143,-2.22936 1.63143,-2.42838 3.26286,-5.46005 3.26286,-6.25538 3.26286,-7.01541 3.26286,-7.71324 3.26286,-8.32516 3.26286,-8.83038 4.89429,-13.91412 9.78858,-28.32989 3.26285,-8.92862 3.26286,-8.31742 3.26286,-7.45796 1.63143,-3.3203 1.63143,-2.99744 1.63143,-2.6335 1.63143,-2.22564 1.63143,-1.77045 1.63143,-1.26539 1.63143,-0.70631 1.63143,-0.0904 1.63143,0.58559 1.63143,1.32374 1.63143,2.12517 1.63143,2.98806 1.63143,3.90752 1.63143,4.87179 1.63143,5.86062 1.63143,6.84111 1.63143,7.76429 1.63143,8.56378 8.15715,45.67521 1.63143,7.69671 1.63143,6.84587 1.63143,6.00828 1.63143,5.22815 1.63143,4.52437 1.63143,3.90038 1.63143,3.3529 1.63143,2.87463 1.63143,2.4589 1.63143,2.09777 1.63143,1.78489 1.63143,1.51458 1.63143,1.28132 1.63143,1.08037 1.63143,0.90785 1.63143,0.76034 3.26286,1.16105 3.26286,0.79517 3.26286,0.53527 4.89429,0.48124 6.52572,0.29904 9.78858,0.13978 26.10288,0.033 40.78574,1.5e-4 v 0"
           clip-path="url(#pb742183ebc)" />
      </g>
      <g
         id="line2d_23">
        <path
           inkscape:connector-curvature="0"
           id="path1374"
           style="fill:none;stroke:#808080;stroke-linecap:square;stroke-opacity:0.7"
           d="m 73.832727,295.488 75.045773,-0.10137 8.15715,-0.26466 4.89429,-0.37674 3.26286,-0.4162 3.26286,-0.61014 3.26286,-0.87153 3.26286,-1.21196 3.26286,-1.63946 1.63143,-1.00833 1.63143,-1.14869 1.63143,-1.29963 1.63143,-1.46009 1.63143,-1.62919 1.63143,-1.80603 1.63143,-1.98867 1.63143,-2.17607 3.26286,-4.92389 3.26286,-5.68646 3.26286,-6.42611 3.26286,-7.11812 3.26286,-7.74062 3.26286,-8.27486 4.89429,-13.18177 16.31429,-45.11866 3.26287,-7.99352 3.26285,-7.16501 1.63143,-3.19035 1.63143,-2.88015 1.63143,-2.52989 1.63143,-2.13633 1.63143,-1.69528 1.63143,-1.20273 1.63143,-0.65406 1.63143,-0.0444 1.63143,0.63099 1.63143,1.37703 1.63143,2.19721 1.63143,3.0933 1.63143,4.06323 1.63143,5.09775 1.63143,6.17722 1.63143,7.2649 1.63143,8.29971 1.63143,9.19297 6.52572,39.24807 1.63143,8.52224 1.63143,7.53878 1.63143,6.55278 1.63143,5.63913 1.63143,4.82788 1.63143,4.12202 1.63143,3.51366 1.63143,2.99104 1.63143,2.54255 1.63143,2.15806 1.63143,1.82821 1.63143,1.54538 1.63143,1.30321 1.63143,1.09585 1.63143,0.91871 1.63143,0.76793 3.26286,1.16998 3.26286,0.79934 3.26286,0.53721 4.89429,0.48228 6.52572,0.29934 9.78858,0.13978 26.10288,0.033 40.78574,1.5e-4 v 0"
           clip-path="url(#pb742183ebc)" />
      </g>
      <g
         id="line2d_24">
        <path
           inkscape:connector-curvature="0"
           id="path1377"
           style="fill:none;stroke:#808080;stroke-linecap:square;stroke-opacity:0.7"
           d="m 73.832727,295.488 75.045773,-0.10137 8.15715,-0.26451 4.89429,-0.376 3.26286,-0.41515 3.26286,-0.60776 3.26286,-0.86677 3.26286,-1.20288 3.26286,-1.62338 1.63143,-0.99642 1.63143,-1.13336 1.63143,-1.28013 1.63143,-1.43598 1.63143,-1.59957 1.63143,-1.77015 1.63143,-1.94565 3.26286,-4.43268 3.26286,-5.1619 3.26286,-5.87848 3.26286,-6.55948 3.26286,-7.18422 3.26286,-7.73586 3.26286,-8.19938 4.89429,-12.94584 14.68286,-39.61246 3.26287,-8.00841 3.26285,-7.3213 1.63143,-3.33147 1.63143,-3.06874 1.63143,-2.77029 1.63143,-2.4324 1.63143,-2.05148 1.63143,-1.62264 1.63143,-1.14125 1.63143,-0.60122 1.63143,0.004 1.63143,0.6807 1.63143,1.43673 1.63143,2.27893 1.63143,3.21283 1.63143,4.24021 1.63143,5.35645 1.63143,6.54266 1.63143,7.75819 1.63143,8.92683 3.26286,20.5193 3.26286,21.14449 1.63143,9.51821 1.63143,8.39602 1.63143,7.22366 1.63143,6.13555 1.63143,5.18527 1.63143,4.37656 1.63143,3.69422 1.63143,3.1192 1.63143,2.6335 1.63143,2.22267 1.63143,1.87375 1.63143,1.57783 1.63143,1.32583 1.63143,1.11193 1.63143,0.93003 1.63143,0.77552 3.26286,1.17906 3.26286,0.80366 3.26286,0.53899 4.89429,0.48347 6.52572,0.29949 9.78858,0.13993 26.10288,0.033 40.78574,1.5e-4 v 0"
           clip-path="url(#pb742183ebc)" />
      </g>
      <g
         id="line2d_25">
        <path
           inkscape:connector-curvature="0"
           id="path1380"
           style="fill:none;stroke:#808080;stroke-linecap:square;stroke-opacity:0.7"
           d="m 73.832727,295.488 75.045773,-0.10137 8.15715,-0.26421 4.89429,-0.37541 3.26286,-0.41396 3.26286,-0.60553 3.26286,-0.86215 3.26286,-1.19395 3.26286,-1.60775 1.63143,-0.98466 1.63143,-1.11848 1.63143,-1.26137 1.63143,-1.41261 1.63143,-1.57114 1.63143,-1.73562 1.63143,-1.90471 3.26286,-4.32878 3.26286,-5.02526 3.26286,-5.7073 3.26286,-6.35361 3.26286,-6.94665 3.26286,-7.47105 3.26286,-7.91508 4.89429,-12.50464 16.31429,-42.67673 3.26286,-7.71785 3.26286,-7.05188 1.63143,-3.20822 1.63143,-2.95502 1.63143,-2.66684 1.63143,-2.34026 1.63143,-1.9705 1.63143,-1.55268 1.63143,-1.08082 1.63143,-0.54778 1.63143,0.0545 1.63143,0.73459 1.63143,1.50341 1.63143,2.37122 1.63143,3.34843 1.63143,4.44265 1.63143,5.65431 1.63143,6.96823 1.63143,8.33901 1.63143,9.6696 3.26286,22.23572 3.26286,22.12602 1.63143,9.46523 1.63143,8.06795 1.63143,6.74926 1.63143,5.61427 1.63143,4.67292 1.63143,3.89904 1.63143,3.26136 1.63143,2.73263 1.63143,2.29173 1.63143,1.92243 1.63143,1.61163 1.63143,1.34964 1.63143,1.12845 1.63143,0.94149 1.63143,0.78356 3.26286,1.18829 3.26286,0.80782 3.26286,0.54108 4.89429,0.48437 6.52572,0.29993 9.78858,0.13993 26.10288,0.033 40.78574,1.5e-4 v 0"
           clip-path="url(#pb742183ebc)" />
      </g>
      <g
         id="line2d_26">
        <path
           inkscape:connector-curvature="0"
           id="path1383"
           style="fill:none;stroke:#808080;stroke-linecap:square;stroke-opacity:0.7"
           d="m 73.832727,295.488 75.045773,-0.10137 8.15715,-0.26406 4.89429,-0.37481 3.26286,-0.41277 3.26286,-0.60315 3.26286,-0.85754 3.26286,-1.18531 3.26286,-1.59213 1.63143,-0.97334 1.63143,-1.10404 1.63143,-1.24322 1.63143,-1.39013 1.63143,-1.54375 1.63143,-1.70257 3.26286,-3.89696 3.26286,-4.56381 3.26286,-5.22457 3.26286,-5.85898 3.26286,-6.44993 3.26286,-6.98281 3.26286,-7.4462 4.89429,-11.86502 6.52572,-16.65063 9.78857,-25.08967 3.26287,-7.913 3.26285,-7.44574 3.26286,-6.79988 1.63143,-3.09285 1.63143,-2.84815 1.63143,-2.56963 1.63143,-2.25274 1.63143,-1.8931 1.63143,-1.4848 1.63143,-1.02098 1.63143,-0.4936 1.63143,0.10747 1.63143,0.79324 1.63143,1.57754 1.63143,2.47526 1.63143,3.50265 1.63143,4.67486 1.63143,6.00024 1.63143,7.46911 1.63143,9.03222 1.63143,10.56138 6.52572,46.99255 1.63143,9.15071 1.63143,7.52821 1.63143,6.1418 1.63143,5.02421 1.63143,4.13408 1.63143,3.42033 1.63143,2.84115 1.63143,2.3663 1.63143,1.97393 1.63143,1.64736 1.63143,1.37435 1.63143,1.14557 1.63143,0.9534 1.63143,0.79159 3.26286,1.19767 3.26286,0.81229 3.26286,0.54286 4.89429,0.48556 6.52572,0.30023 9.78858,0.13993 26.10288,0.033 40.78574,1.5e-4 v 0"
           clip-path="url(#pb742183ebc)" />
      </g>
      <g
         id="line2d_27">
        <path
           inkscape:connector-curvature="0"
           id="path1386"
           style="fill:none;stroke:#808080;stroke-linecap:square;stroke-opacity:0.7"
           d="m 73.832727,295.488 75.045773,-0.10137 8.15715,-0.26377 4.89429,-0.37421 3.26286,-0.41173 3.26286,-0.60091 3.26286,-0.85293 3.26286,-1.17682 3.26286,-1.57695 3.26286,-2.05223 1.63143,-1.22565 1.63143,-1.3684 1.63143,-1.51725 3.26286,-3.49907 3.26286,-4.13557 3.26286,-4.77399 3.26286,-5.39442 3.26286,-5.97984 3.26286,-6.51617 3.26286,-6.99249 4.89429,-11.22957 4.89429,-11.8875 16.3143,-40.47104 3.26285,-7.43905 3.26286,-6.9002 3.26286,-6.17604 1.63143,-2.74766 1.63143,-2.4775 1.63143,-2.16967 1.63143,-1.81898 1.63143,-1.41886 1.63143,-0.96174 1.63143,-0.43822 1.63143,0.16314 1.63143,0.85695 1.63143,1.65985 1.63143,2.59241 1.63143,3.67874 1.63143,4.94294 1.63143,6.40542 1.63143,8.06661 1.63143,9.87264 1.63143,11.64755 4.89429,38.71592 1.63143,10.55572 1.63143,8.54502 1.63143,6.8094 1.63143,5.45023 1.63143,4.40812 1.63143,3.59954 1.63143,2.96068 1.63143,2.44698 1.63143,2.02886 1.63143,1.68501 1.63143,1.40026 1.63143,1.16328 1.63143,0.96545 1.63143,0.80009 3.26286,1.20719 3.26286,0.8166 3.26286,0.54495 4.89429,0.48645 6.52572,0.30054 9.78858,0.14007 26.10288,0.033 40.78574,1.5e-4 v 0"
           clip-path="url(#pb742183ebc)" />
      </g>
      <g
         id="line2d_28">
        <path
           inkscape:connector-curvature="0"
           id="path1389"
           style="fill:none;stroke:#808080;stroke-linecap:square;stroke-opacity:0.7"
           d="m 73.832727,295.488 75.045773,-0.10137 8.15715,-0.26362 4.89429,-0.37347 3.26286,-0.41083 3.26286,-0.59853 3.26286,-0.84832 3.26286,-1.16834 3.26286,-1.5622 3.26286,-2.02782 1.63143,-1.20853 1.63143,-1.34741 3.26286,-3.13231 3.26286,-3.73813 3.26286,-4.35319 3.26286,-4.95797 3.26286,-5.53567 3.26286,-6.07169 3.26286,-6.55546 3.26286,-6.9791 4.89429,-11.116 6.52572,-15.64513 11.42,-27.79417 4.89429,-11.22422 3.26286,-6.95096 3.26286,-6.34141 1.63143,-2.88252 1.63143,-2.65285 1.63143,-2.39027 1.63143,-2.09049 1.63143,-1.74753 1.63143,-1.35455 1.63143,-0.90294 1.63143,-0.38181 1.63143,0.22194 1.63143,0.92586 1.63143,1.7514 1.63143,2.72504 1.63143,3.88014 1.63143,5.25464 1.63143,6.88591 1.63143,8.79033 1.63143,10.91133 1.63143,12.99035 3.26286,28.51327 1.63143,12.36368 1.63143,9.90866 1.63143,7.68436 1.63143,5.98178 1.63143,4.73336 1.63143,3.80437 1.63143,3.0933 1.63143,2.53466 1.63143,2.08766 1.63143,1.7246 1.63143,1.4272 1.63143,1.18174 1.63143,0.97811 1.63143,0.80856 3.26286,1.21702 3.26286,0.82092 3.26286,0.54689 4.89429,0.48764 6.52572,0.30083 9.78858,0.14007 26.10288,0.033 40.78574,1.5e-4 v 0"
           clip-path="url(#pb742183ebc)" />
      </g>
      <g
         id="line2d_29">
        <path
           inkscape:connector-curvature="0"
           id="path1392"
           style="fill:none;stroke:#808080;stroke-linecap:square;stroke-opacity:0.7"
           d="m 73.832727,295.488 75.045773,-0.10122 8.15715,-0.26347 4.89429,-0.37302 3.26286,-0.40964 3.26286,-0.59631 3.26286,-0.84384 3.26286,-1.16016 3.26286,-1.54762 3.26286,-2.00385 3.26286,-2.51918 3.26286,-3.07841 3.26286,-3.66385 3.26286,-4.25555 3.26286,-4.83517 3.26286,-5.38742 3.26286,-5.89917 3.26286,-6.36135 3.26286,-6.76653 4.89429,-10.77424 4.89429,-11.32365 16.31429,-38.4715 3.26286,-7.16427 3.26286,-6.7253 3.26286,-6.13242 1.63143,-2.78637 1.63143,-2.56294 1.63143,-2.30751 1.63143,-2.01457 1.63143,-1.67861 1.63143,-1.29174 1.63143,-0.84414 1.63143,-0.32435 1.63143,0.28401 1.63143,1.00103 1.63143,1.85307 1.63143,2.87523 1.63143,4.1122 1.63143,5.62066 1.63143,7.46346 1.63143,9.6836 1.63143,12.22778 1.63143,14.66523 1.63143,15.7928 1.63143,14.58664 1.63143,11.76619 1.63143,8.87592 1.63143,6.66963 1.63143,5.1296 1.63143,4.04209 1.63143,3.24171 1.63143,2.63022 1.63143,2.15062 1.63143,1.76658 1.63143,1.45548 1.63143,1.20079 1.63143,0.99106 1.63143,0.81735 3.26286,1.22684 3.26286,0.82554 3.26286,0.54882 4.89429,0.48868 6.52572,0.30113 9.78858,0.14022 26.10288,0.033 40.78574,1.5e-4 v 0"
           clip-path="url(#pb742183ebc)" />
      </g>
      <g
         id="line2d_30">
        <path
           inkscape:connector-curvature="0"
           id="path1395"
           style="fill:none;stroke:#808080;stroke-linecap:square;stroke-opacity:0.7"
           d="m 73.832727,295.488 75.045773,-0.10122 8.15715,-0.26332 4.89429,-0.37228 3.26286,-0.4086 3.26286,-0.59407 3.26286,-0.83953 3.26286,-1.15182 3.26286,-1.53347 3.26286,-1.98063 3.26286,-2.48346 3.26286,-3.02661 3.26286,-3.59256 3.26286,-4.16236 3.26286,-4.71877 3.26286,-5.24719 3.26286,-5.73663 3.26286,-6.17827 3.26286,-6.56677 4.89429,-10.45197 4.89429,-10.99081 19.57715,-44.71467 3.26286,-6.74406 3.26286,-6.24421 3.26286,-5.58018 1.63143,-2.47794 1.63143,-2.22847 1.63143,-1.94208 1.63143,-1.61192 1.63143,-1.22997 1.63143,-0.7855 1.63143,-0.26495 1.63143,0.34965 1.63143,1.08275 1.63143,1.96664 1.63143,3.04597 1.63143,4.38147 1.63143,6.05532 1.63143,8.16976 1.63143,10.81219 1.63143,13.95343 3.26286,33.72921 1.63143,14.27167 1.63143,10.55989 1.63143,7.6013 1.63143,5.6287 1.63143,4.32297 1.63143,3.40962 1.63143,2.73531 1.63143,2.21835 1.63143,1.81108 1.63143,1.4851 1.63143,1.22059 1.63143,1.00446 1.63143,0.82628 1.63143,0.67936 3.26286,1.01458 3.26286,0.67713 3.26286,0.44656 4.89429,0.39327 6.52572,0.23846 11.42001,0.11491 44.0486,0.0183 h 19.57716 v 0"
           clip-path="url(#pb742183ebc)" />
      </g>
      <g
         id="line2d_31">
        <path
           inkscape:connector-curvature="0"
           id="path1398"
           style="fill:none;stroke:#808080;stroke-linecap:square;stroke-opacity:0.7"
           d="m 73.832727,295.488 75.045773,-0.10122 8.15715,-0.26302 4.89429,-0.37183 3.26286,-0.40741 3.26286,-0.59184 3.26286,-0.83521 3.26286,-1.14378 3.26286,-1.51964 3.26286,-1.958 3.26286,-2.44863 3.26286,-2.97675 3.26286,-3.52422 3.26286,-4.0735 3.26286,-4.60788 3.26286,-5.11457 3.26286,-5.58285 3.26286,-6.00575 3.26286,-6.37833 4.89429,-10.14786 4.89429,-10.6751 8.15715,-18.42019 8.15714,-18.32269 4.89429,-10.44884 3.26286,-6.53775 3.26286,-6.04981 3.26286,-5.40289 1.63143,-2.39698 1.63143,-2.15315 1.63143,-1.87226 1.63143,-1.54732 1.63143,-1.16909 1.63143,-0.72655 1.63143,-0.20393 1.63143,0.41947 1.63143,1.17206 1.63143,2.09376 1.63143,3.24156 1.63143,4.696 1.63143,6.58061 1.63143,9.0477 1.63143,12.29164 1.63143,16.29651 1.63143,18.99669 1.63143,17.44982 1.63143,12.9966 1.63143,8.92996 1.63143,6.28648 1.63143,4.66414 1.63143,3.60223 1.63143,2.85171 1.63143,2.29144 1.63143,1.85842 1.63143,1.51606 1.63143,1.24128 1.63143,1.01815 1.63143,0.83566 1.63143,0.68547 3.26286,1.02142 3.26286,0.68026 3.26286,0.44789 4.89429,0.39387 6.52572,0.23876 11.42001,0.11491 44.0486,0.0183 h 19.57716 v 0"
           clip-path="url(#pb742183ebc)" />
      </g>
      <g
         id="line2d_32">
        <path
           inkscape:connector-curvature="0"
           id="path1401"
           style="fill:none;stroke:#808080;stroke-linecap:square;stroke-opacity:0.7"
           d="m 73.832727,295.488 75.045773,-0.10122 8.15715,-0.26287 4.89429,-0.37109 3.26286,-0.40652 3.26286,-0.5896 3.26286,-0.83075 3.26286,-1.13604 3.26286,-1.50594 3.26286,-1.93583 3.26286,-2.41513 3.26286,-2.92852 3.26286,-3.45858 3.26286,-3.9885 3.26286,-4.50264 3.26286,-4.98864 3.26286,-5.43743 3.26286,-5.84276 3.26286,-6.20029 4.89429,-9.86043 4.89429,-10.37546 8.15715,-17.93999 9.78857,-21.45544 4.89429,-10.14608 3.26286,-6.3426 3.26286,-5.86583 3.26286,-5.23469 1.63143,-2.31987 1.63143,-2.0811 1.63143,-1.80499 1.63143,-1.4842 1.63143,-1.10925 1.63143,-0.66701 1.63143,-0.14066 1.63143,0.49389 1.63143,1.27016 1.63143,2.23695 1.63143,3.46662 1.63143,5.06798 1.63143,7.22857 1.63143,10.15397 1.63143,14.37081 1.63143,19.46349 1.63143,20.86732 1.63143,16.48913 1.63143,10.92428 1.63143,7.2049 1.63143,5.09463 1.63143,3.82759 1.63143,2.98136 1.63143,2.37092 1.63143,1.90888 1.63143,1.54881 1.63143,1.26272 1.63143,1.03229 1.63143,0.84504 1.63143,0.69186 3.26286,1.02842 3.26286,0.68338 3.26286,0.44924 4.89429,0.39461 6.52572,0.23891 11.42001,0.11491 44.0486,0.0183 h 19.57716 v 0"
           clip-path="url(#pb742183ebc)" />
      </g>
      <g
         id="line2d_33">
        <path
           inkscape:connector-curvature="0"
           id="path1404"
           style="fill:none;stroke:#808080;stroke-linecap:square;stroke-opacity:0.7"
           d="m 73.832727,295.488 75.045773,-0.10122 8.15715,-0.26257 4.89429,-0.37065 3.26286,-0.40532 3.26286,-0.58737 3.26286,-0.82673 3.26286,-1.12815 3.26286,-1.4924 3.26286,-1.91439 3.26286,-2.38253 3.26286,-2.88193 3.26286,-3.39562 3.26286,-3.90723 3.26286,-4.40216 3.26286,-4.86896 3.26286,-5.29974 3.26286,-5.68855 3.26286,-6.03209 4.89429,-9.58833 4.89429,-10.091 8.15715,-17.47825 9.78857,-21.03121 4.89429,-10.04814 3.26286,-6.34483 3.26286,-5.941 3.26286,-5.40453 1.63143,-2.44922 1.63143,-2.24633 1.63143,-2.01174 1.63143,-1.74009 1.63143,-1.42273 1.63143,-1.0497 1.63143,-0.60688 1.63143,-0.0749 1.63143,0.57383 1.63143,1.37763 1.63143,2.40024 1.63143,3.72488 1.63143,5.52183 1.63143,8.03029 1.63143,11.6035 1.63143,17.56964 1.63143,23.218 1.63143,21.12856 1.63143,14.02681 1.63143,8.57851 1.63143,5.66771 1.63143,4.09805 1.63143,3.12799 1.63143,2.45755 1.63143,1.96277 1.63143,1.58319 1.63143,1.28504 1.63143,1.04703 1.63143,0.85486 1.63143,0.69827 3.26286,1.03556 3.26286,0.68651 3.26286,0.45043 4.89429,0.39535 6.52572,0.23906 11.42001,0.11506 44.0486,0.0183 h 19.57716 v 0"
           clip-path="url(#pb742183ebc)" />
      </g>
      <g
         id="line2d_34">
        <path
           inkscape:connector-curvature="0"
           id="path1407"
           style="fill:none;stroke:#808080;stroke-linecap:square;stroke-opacity:0.7"
           d="m 73.832727,295.488 75.045773,-0.10122 8.15715,-0.26243 4.89429,-0.3699 3.26286,-0.40428 3.26286,-0.58529 3.26286,-0.82241 3.26286,-1.12056 3.26286,-1.47929 3.26286,-1.8934 3.26286,-2.35083 3.26286,-2.83698 3.26286,-3.33504 3.26286,-3.82937 3.26286,-4.3063 3.26286,-4.75524 3.26286,-5.16905 3.26286,-5.54237 4.89429,-8.91909 4.89429,-9.51107 6.52572,-13.33673 19.57715,-40.82858 4.89429,-9.36461 3.26286,-5.76996 3.26286,-5.24526 1.63143,-2.37494 1.63143,-2.17578 1.63143,-1.94535 1.63143,-1.67712 1.63143,-1.36245 1.63143,-0.99046 1.63143,-0.54569 1.63143,-0.006 1.63143,0.65927 1.63143,1.49775 1.63143,2.58646 1.63143,4.02155 1.63143,6.10592 1.63143,8.96732 1.63143,13.81246 1.63143,22.5431 1.63143,26.10425 1.63143,18.82894 1.63143,10.78301 1.63143,6.48789 1.63143,4.43654 1.63143,3.29649 1.63143,2.55282 1.63143,2.02052 1.63143,1.61937 1.63143,1.30841 1.63143,1.06221 1.63143,0.86483 1.63143,0.70497 3.26286,1.04271 3.26286,0.68963 3.26286,0.45192 4.89429,0.39609 6.52572,0.23921 11.42001,0.11491 42.41717,0.0185 h 21.20859 v 0"
           clip-path="url(#pb742183ebc)" />
      </g>
      <g
         id="line2d_35">
        <path
           inkscape:connector-curvature="0"
           id="path1410"
           style="fill:none;stroke:#808080;stroke-linecap:square;stroke-opacity:0.7"
           d="m 73.832727,295.488 75.045773,-0.10122 8.15715,-0.26213 4.89429,-0.36945 3.26286,-0.40324 3.26286,-0.58306 3.26286,-0.81824 3.26286,-1.11297 3.26286,-1.46649 3.26286,-1.87286 3.26286,-2.32002 3.26286,-2.79351 3.26286,-3.27669 3.26286,-3.7548 3.26286,-4.21476 3.26286,-4.64702 3.26286,-5.04476 3.26286,-5.40378 4.89429,-8.68852 4.89429,-9.26115 6.52572,-12.99139 11.42001,-23.53446 6.52571,-13.26126 4.89429,-9.51138 3.26286,-5.99562 3.26286,-5.60742 3.26286,-5.09343 1.63143,-2.30409 1.63143,-2.10834 1.63143,-1.8812 1.63143,-1.61594 1.63143,-1.30336 1.63143,-0.93136 1.63143,-0.48318 1.63143,0.0671 1.63143,0.74962 1.63143,1.63798 1.63143,2.78636 1.63143,4.39621 1.63143,6.83902 1.63143,10.01063 1.63143,17.99908 1.63143,28.85668 1.63143,25.64519 1.63143,14.51266 1.63143,7.77292 1.63143,4.88638 1.63143,3.49491 1.63143,2.65865 1.63143,2.08259 1.63143,1.65777 1.63143,1.33283 1.63143,1.07799 1.63143,0.87495 1.63143,0.71167 3.26286,1.05015 3.26286,0.69291 3.26286,0.45325 4.89429,0.39669 6.52572,0.23951 11.42001,0.11491 42.41717,0.0185 h 21.20859 v 0"
           clip-path="url(#pb742183ebc)" />
      </g>
      <g
         id="line2d_36">
        <path
           inkscape:connector-curvature="0"
           id="path1413"
           style="fill:none;stroke:#808080;stroke-linecap:square;stroke-opacity:0.7"
           d="m 73.832727,295.488 75.045773,-0.10122 8.15715,-0.26198 4.89429,-0.36871 3.26286,-0.40235 3.26286,-0.58097 3.26286,-0.81407 3.26286,-1.10553 3.26286,-1.45384 3.26286,-1.85277 3.26286,-2.29009 3.26286,-2.75139 3.26286,-3.22057 3.26286,-3.6832 3.26286,-4.12723 3.26286,-4.54372 3.26286,-4.92657 3.26286,-5.27205 4.89429,-8.46971 4.89429,-9.02388 6.52572,-12.66183 9.78857,-19.69764 8.15715,-16.33506 4.89429,-9.41849 4.89429,-8.86282 3.26286,-5.45276 3.26286,-4.94875 1.63143,-2.23621 1.63143,-2.04345 1.63143,-1.81927 1.63143,-1.5564 1.63143,-1.24471 1.63143,-0.87272 1.63143,-0.41753 1.63143,0.14156 1.63143,0.85069 1.63143,1.80007 1.63143,2.98152 1.63143,4.97762 1.63143,7.47731 1.63143,11.77869 1.63143,25.90359 1.63143,33.12591 1.63143,20.85304 1.63143,9.98725 1.63143,5.54073 1.63143,3.73828 1.63143,2.77744 1.63143,2.14973 1.63143,1.69855 1.63143,1.35828 1.63143,1.09421 1.63143,0.88553 1.63143,0.71866 3.26286,1.05759 3.26286,0.69604 3.26286,0.45459 4.89429,0.39759 6.52572,0.23965 11.42001,0.11491 42.41717,0.0185 h 21.20859 v 0"
           clip-path="url(#pb742183ebc)" />
      </g>
      <g
         id="line2d_37">
        <path
           inkscape:connector-curvature="0"
           id="path1416"
           style="fill:none;stroke:#808080;stroke-linecap:square;stroke-opacity:0.7"
           d="m 73.832727,295.488 75.045773,-0.10107 8.15715,-0.26198 4.89429,-0.36811 3.26286,-0.40116 3.26286,-0.57889 3.26286,-0.81005 3.26286,-1.09809 3.26286,-1.44163 3.26286,-1.83312 3.26286,-2.26107 3.26286,-2.7106 3.26286,-3.16654 3.26286,-3.61443 3.26286,-4.04343 3.26286,-4.44518 3.26286,-4.81389 3.26286,-5.14672 4.89429,-8.26175 4.89429,-8.79807 6.52572,-12.34746 8.15714,-16.01161 11.42001,-22.413 4.89429,-9.17943 4.89429,-8.62957 3.26286,-5.30525 3.26286,-4.81061 1.63143,-2.17102 1.63143,-1.98107 1.63143,-1.75944 1.63143,-1.4979 1.63143,-1.18725 1.63143,-0.81318 1.63143,-0.34816 1.63143,0.21211 1.63143,0.9866 1.63143,1.93314 1.63143,3.26478 1.63143,5.80108 1.63143,7.49487 1.63143,16.98659 1.63143,36.48075 1.63143,30.69113 1.63143,14.10406 1.63143,6.6095 1.63143,4.05727 1.63143,2.91393 1.63143,2.22297 1.63143,1.74172 1.63143,1.38492 1.63143,1.11118 1.63143,0.89639 1.63143,0.72566 3.26286,1.06519 3.26286,0.69945 3.26286,0.45594 4.89429,0.39818 6.52572,0.2398 11.42001,0.11506 42.41717,0.0185 h 21.20859 v 0"
           clip-path="url(#pb742183ebc)" />
      </g>
      <g
         id="line2d_38">
        <path
           inkscape:connector-curvature="0"
           id="path1419"
           style="fill:none;stroke:#808080;stroke-linecap:square;stroke-opacity:0.7"
           d="m 73.832727,295.488 75.045773,-0.10107 8.15715,-0.26168 4.89429,-0.36752 3.26286,-0.40026 3.26286,-0.57681 3.26286,-0.80603 3.26286,-1.09079 3.26286,-1.42943 3.26286,-1.81407 3.26286,-2.23278 3.26286,-2.67116 3.26286,-3.11414 3.26286,-3.54849 3.26286,-3.9632 3.26286,-4.35096 3.26286,-4.70656 3.26286,-5.02734 4.89429,-8.06363 4.89429,-8.58313 6.52572,-12.04722 8.15714,-15.6429 13.05144,-25.06705 4.89429,-8.95064 4.89429,-8.40704 3.26286,-5.16443 3.26286,-4.67858 1.63143,-2.10835 1.63143,-1.92094 1.63143,-1.70138 1.63143,-1.44 1.63143,-1.13247 1.63143,-0.74709 1.63143,-0.28684 1.63143,0.29801 1.63143,1.15569 1.63143,1.9522 1.63143,4.01067 1.63143,6.0778 1.63143,7.75908 1.63143,29.6389 1.63143,42.12895 1.63143,21.91212 1.63143,8.5928 1.63143,4.52243 1.63143,3.07663 1.63143,2.30349 1.63143,1.78772 1.63143,1.41291 1.63143,1.1286 1.63143,0.9077 1.63143,0.7328 3.26286,1.07293 3.26286,0.70273 3.26286,0.45742 4.89429,0.39878 6.52572,0.2401 11.42001,0.11506 42.41717,0.0185 h 21.20859 v 0"
           clip-path="url(#pb742183ebc)" />
      </g>
      <g
         id="line2d_39">
        <path
           inkscape:connector-curvature="0"
           id="path1422"
           style="fill:none;stroke:#808080;stroke-linecap:square;stroke-opacity:0.7"
           d="m 73.832727,295.488 75.045773,-0.10107 8.15715,-0.26153 4.89429,-0.36693 3.26286,-0.39922 3.26286,-0.57472 3.26286,-0.80201 3.26286,-1.0838 3.26286,-1.41737 3.26286,-1.79531 3.26286,-2.2054 3.26286,-2.6329 3.26286,-3.06368 3.26286,-3.48493 3.26286,-3.88624 3.26286,-4.26075 3.26286,-4.60401 3.26286,-4.91361 4.89429,-7.87504 4.89429,-8.37816 6.52572,-11.76023 8.15714,-15.28789 13.05144,-24.61379 4.89429,-8.86327 4.89429,-8.40019 3.26286,-5.22323 3.26286,-4.80763 3.26286,-4.25539 1.63143,-1.86334 1.63143,-1.64333 1.63143,-1.38596 1.63143,-1.07516 1.63143,-0.67624 1.63143,-0.25007 1.63143,0.47305 1.63143,1.18427 1.63143,2.11341 1.63143,5.31447 1.63143,4.11696 1.63143,14.02011 1.63143,46.76467 1.63143,35.45679 1.63143,12.67702 1.63143,5.30971 1.63143,3.28398 1.63143,2.3934 1.63143,1.83699 1.63143,1.44238 1.63143,1.14676 1.63143,0.91916 1.63143,0.74024 3.26286,1.08082 3.26286,0.70601 3.26286,0.45876 4.89429,0.39967 6.52572,0.24025 11.42001,0.11506 42.41717,0.0185 h 21.20859 v 0"
           clip-path="url(#pb742183ebc)" />
      </g>
      <g
         id="line2d_40">
        <path
           inkscape:connector-curvature="0"
           id="path1425"
           style="fill:none;stroke:#808080;stroke-linecap:square;stroke-opacity:0.7"
           d="m 73.832727,295.488 75.045773,-0.10107 8.15715,-0.26124 4.89429,-0.36647 3.26286,-0.39803 3.26286,-0.57279 3.26286,-0.798 3.26286,-1.07679 3.26286,-1.40577 3.26286,-1.777 3.26286,-2.17845 3.26286,-2.59599 3.26286,-3.015 3.26286,-3.42361 3.26286,-3.81241 3.26286,-4.17456 3.26286,-4.50591 3.26286,-4.80496 4.89429,-7.69507 4.89429,-8.18287 6.52572,-11.4859 8.15714,-14.94567 14.68287,-27.11734 4.89429,-8.65338 4.89429,-8.19403 3.26286,-5.0915 3.26286,-4.68245 3.26286,-4.13765 1.63143,-1.80677 1.63143,-1.58617 1.63143,-1.33863 1.63143,-0.9985 1.63143,-0.64275 1.63143,-0.16686 1.63143,0.69975 1.63143,0.85665 1.63143,3.37359 1.63143,5.17664 1.63143,1.3169 1.63143,34.20599 1.63143,52.72456 1.63143,21.43579 1.63143,6.88309 1.63143,3.58287 1.63143,2.497 1.63143,1.89028 1.63143,1.47319 1.63143,1.16566 1.63143,0.93108 1.63143,0.74783 3.26286,1.08886 3.26286,0.70928 3.26286,0.46025 4.89429,0.40026 6.52572,0.24055 11.42001,0.11506 42.41717,0.0185 h 21.20859 v 0"
           clip-path="url(#pb742183ebc)" />
      </g>
      <g
         id="line2d_41">
        <path
           inkscape:connector-curvature="0"
           id="path1428"
           style="fill:none;stroke:#808080;stroke-linecap:square;stroke-opacity:0.7"
           d="m 73.832727,295.488 75.045773,-0.10107 8.15715,-0.26109 4.89429,-0.36573 3.26286,-0.39714 3.26286,-0.5707 3.26286,-0.79412 3.26286,-1.06981 3.26286,-1.3943 3.26286,-1.75914 3.26286,-2.1524 3.26286,-2.55996 3.26286,-2.96797 3.26286,-3.36466 3.26286,-3.74141 3.26286,-4.0918 3.26286,-4.41214 3.26286,-4.70105 4.89429,-7.52345 4.89429,-7.99605 6.52572,-11.22348 8.15714,-14.61641 16.3143,-29.51758 4.89429,-8.45184 4.89429,-7.9968 3.26286,-4.96512 3.26286,-4.56233 3.26286,-4.02556 1.63143,-1.74708 1.63143,-1.54077 1.63143,-1.27716 1.63143,-0.92333 1.63143,-0.67043 1.63143,0.14186 1.63143,0.50193 1.63143,0.89266 1.63143,5.7786 1.63143,-0.15376 1.63143,9.02537 1.63143,60.18981 1.63143,38.75983 1.63143,10.49513 1.63143,4.10148 1.63143,2.62397 1.63143,1.94818 1.63143,1.5058 1.63143,1.18546 1.63143,0.94327 1.63143,0.75558 3.26286,1.09704 3.26286,0.71271 3.26286,0.46159 4.89429,0.40115 6.52572,0.2407 11.42001,0.11506 42.41717,0.0185 h 21.20859 v 0"
           clip-path="url(#pb742183ebc)" />
      </g>
      <g
         id="line2d_42">
        <path
           inkscape:connector-curvature="0"
           id="path1431"
           style="fill:none;stroke:#808080;stroke-linecap:square;stroke-opacity:0.7"
           d="m 73.832727,295.488 75.045773,-0.10107 8.15715,-0.26079 4.89429,-0.36528 3.26286,-0.3961 3.26286,-0.56862 3.26286,-0.7904 3.26286,-1.06296 3.26286,-1.38299 3.26286,-1.74157 3.26286,-2.1271 3.26286,-2.52498 3.26286,-2.92242 3.26286,-3.30795 3.26286,-3.67308 3.26286,-4.01232 3.26286,-4.32238 3.26286,-4.60177 4.89429,-7.35926 4.89429,-7.81773 6.52572,-10.97221 8.15714,-14.29921 17.94573,-31.82018 4.89429,-8.25863 4.89429,-7.8079 3.26286,-4.84411 3.26286,-4.44592 3.26286,-3.91512 1.63143,-1.69275 1.63143,-1.50579 1.63143,-1.16804 1.63143,-0.96352 1.63143,-0.53468 1.63143,0.46501 1.63143,-0.45727 1.63143,3.30408 1.63143,4.93892 1.63143,-7.76295 1.63143,40.52135 1.63143,63.66715 1.63143,19.33221 1.63143,5.21683 1.63143,2.80229 1.63143,2.01249 1.63143,1.54047 1.63143,1.206 1.63143,0.95593 1.63143,0.76347 1.63143,0.61253 3.26286,0.88954 3.26286,0.57635 3.26286,0.37124 4.89429,0.31989 6.52572,0.18919 13.05144,0.0921 60.3629,0.01 v 0"
           clip-path="url(#pb742183ebc)" />
      </g>
      <g
         id="line2d_43">
        <path
           inkscape:connector-curvature="0"
           id="path1434"
           style="fill:none;stroke:#808080;stroke-linecap:square;stroke-opacity:0.7"
           d="m 73.832727,295.488 75.045773,-0.10107 8.15715,-0.26064 4.89429,-0.36454 3.26286,-0.3952 3.26286,-0.56654 3.26286,-0.78668 3.26286,-1.05626 3.26286,-1.37182 3.26286,-1.72461 3.26286,-2.10209 3.26286,-2.49119 3.26286,-2.87836 3.26286,-3.25302 3.26286,-3.60744 3.26286,-3.93626 3.26286,-4.23619 3.26286,-4.50665 4.89429,-7.20208 4.89429,-7.64714 6.52572,-10.73152 8.15714,-13.99391 19.57716,-34.03093 4.89429,-8.07301 4.89429,-7.62676 3.26286,-4.72844 3.26286,-4.33443 3.26286,-3.79887 1.63143,-1.67027 1.63143,-1.41499 3.26286,-2.19468 1.63143,0.0698 3.26286,-0.61521 1.63143,7.46004 1.63143,-5.56291 1.63143,2.6972 1.63143,76.55138 1.63143,39.58 1.63143,8.0815 1.63143,3.11488 1.63143,2.0884 1.63143,1.57739 1.63143,1.22744 1.63143,0.96888 1.63143,0.7715 1.63143,0.61774 3.26286,0.89505 3.26286,0.57844 3.26286,0.37228 4.89429,0.32033 6.52572,0.18934 13.05144,0.0921 60.3629,0.01 v 0"
           clip-path="url(#pb742183ebc)" />
      </g>
      <g
         id="line2d_44">
        <path
           inkscape:connector-curvature="0"
           id="path1437"
           style="fill:none;stroke:#808080;stroke-linecap:square;stroke-opacity:0.7"
           d="m 73.832727,295.488 75.045773,-0.10107 8.15715,-0.26049 4.89429,-0.36395 3.26286,-0.39416 3.26286,-0.56459 3.26286,-0.78282 3.26286,-1.04971 3.26286,-1.36081 3.26286,-1.70793 3.26286,-2.07798 3.26286,-2.45815 3.26286,-2.83564 3.26286,-3.20032 3.26286,-3.54418 3.26286,-3.86287 3.26286,-4.15358 4.89429,-6.71249 4.89429,-7.2058 4.89429,-7.608 6.52572,-10.62389 8.15714,-13.78984 19.57716,-33.36631 4.89429,-7.89483 4.89429,-7.45259 3.26286,-4.61756 3.26286,-4.23276 3.26286,-3.69437 1.63143,-1.63961 3.26286,-2.56279 1.63143,-0.73935 1.63143,0.40696 1.63143,-2.13618 1.63143,4.13363 1.63143,5.07572 1.63143,-19.2615 1.63143,49.69348 1.63143,73.0974 1.63143,16.10464 1.63143,3.83489 1.63143,2.19021 1.63143,1.61728 1.63143,1.24977 1.63143,0.98242 1.63143,0.77999 1.63143,0.62295 3.26286,0.90041 3.26286,0.58082 3.26286,0.37317 4.89429,0.32078 6.52572,0.18949 13.05144,0.0921 60.3629,0.01 v 0"
           clip-path="url(#pb742183ebc)" />
      </g>
      <g
         id="line2d_45">
        <path
           inkscape:connector-curvature="0"
           id="path1440"
           style="fill:none;stroke:#808080;stroke-linecap:square;stroke-opacity:0.7"
           d="m 73.832727,295.488 75.045773,-0.10092 8.15715,-0.26035 4.89429,-0.36349 3.26286,-0.39312 3.26286,-0.56266 3.26286,-0.7791 3.26286,-1.04301 3.26286,-1.35024 3.26286,-1.69141 3.26286,-2.05446 3.26286,-2.42629 3.26286,-2.79426 3.26286,-3.14912 3.26286,-3.48315 3.26286,-3.79246 3.26286,-4.07424 4.89429,-6.57853 4.89429,-7.05709 4.89429,-7.44813 6.52572,-10.40032 8.15714,-13.50761 21.20859,-35.46394 4.89429,-7.7235 4.89429,-7.28499 3.26286,-4.5074 3.26286,-4.13363 3.26286,-3.64361 1.63143,-1.46471 1.63143,-1.29189 1.63143,-1.48614 1.63143,0.32182 3.26286,-2.72236 1.63143,10.29359 1.63143,-12.45553 1.63143,-3.50636 1.63143,94.66105 1.63143,37.61977 1.63143,5.90512 1.63143,2.3675 1.63143,1.66253 1.63143,1.27328 1.63143,0.99627 1.63143,0.78847 1.63143,0.62846 3.26286,0.90592 3.26286,0.5832 3.26286,0.37407 4.89429,0.32122 6.52572,0.18964 13.05144,0.0921 60.3629,0.01 v 0"
           clip-path="url(#pb742183ebc)" />
      </g>
      <g
         id="line2d_46">
        <path
           inkscape:connector-curvature="0"
           id="path1443"
           style="fill:none;stroke:#808080;stroke-linecap:square;stroke-opacity:0.7"
           d="m 73.832727,295.488 75.045773,-0.10092 8.15715,-0.2602 4.89429,-0.36275 3.26286,-0.39222 3.26286,-0.56073 3.26286,-0.77538 3.26286,-1.0366 3.26286,-1.33968 3.26286,-1.67548 3.26286,-2.03139 3.26286,-2.39503 3.26286,-2.75437 3.26286,-3.09955 3.26286,-3.4245 3.26286,-3.72458 3.26286,-3.99788 4.89429,-6.45007 4.89429,-6.9145 4.89429,-7.29481 6.52572,-10.18537 8.15714,-13.23536 22.84002,-37.48238 4.89429,-7.55858 4.89429,-7.12616 3.26286,-4.40052 3.26286,-4.0083 3.26286,-3.58079 1.63143,-1.26316 1.63143,-1.75304 1.63143,-0.65421 1.63143,0.33626 1.63143,-4.1634 1.63143,6.14329 1.63143,4.9093 1.63143,-32.43003 1.63143,62.48929 1.63143,79.27805 1.63143,12.52965 1.63143,2.80036 1.63143,1.71999 1.63143,1.29814 1.63143,1.01071 1.63143,0.79725 1.63143,0.63396 3.26286,0.91158 3.26286,0.58543 3.26286,0.37496 4.89429,0.32182 6.52572,0.18979 13.05144,0.0921 60.3629,0.01 v 0"
           clip-path="url(#pb742183ebc)" />
      </g>
      <g
         id="line2d_47">
        <path
           inkscape:connector-curvature="0"
           id="path1446"
           style="fill:none;stroke:#808080;stroke-linecap:square;stroke-opacity:0.7"
           d="m 73.832727,295.488 75.045773,-0.10092 8.15715,-0.2599 4.89429,-0.3623 3.26286,-0.39134 3.26286,-0.55864 3.26286,-0.7718 3.26286,-1.03021 3.26286,-1.3294 3.26286,-1.65956 3.26286,-2.00906 3.26286,-2.36481 3.26286,-2.71537 3.26286,-3.05177 3.26286,-3.36779 3.26286,-3.65924 3.26286,-3.92464 4.89429,-6.32652 4.89429,-6.77755 4.89429,-7.1476 6.52572,-9.97891 8.15714,-12.97279 24.47145,-39.42579 4.89429,-7.4005 4.89429,-6.97254 3.26286,-4.31449 3.26286,-3.88609 1.63143,-1.90993 1.63143,-1.40293 1.63143,-1.5698 1.63143,-1.76554 1.63143,0.84563 1.63143,-2.8654 1.63143,-1.84607 1.63143,13.79638 1.63143,-21.00679 1.63143,-7.79555 1.63143,112.60893 1.63143,33.37301 1.63143,4.18826 1.63143,1.81719 1.63143,1.32523 1.63143,1.02574 1.63143,0.80634 1.63143,0.63947 3.26286,0.91738 3.26286,0.58781 3.26286,0.37586 4.89429,0.32226 6.52572,0.18979 13.05144,0.0923 60.3629,0.01 v 0"
           clip-path="url(#pb742183ebc)" />
      </g>
      <g
         id="line2d_48">
        <path
           inkscape:connector-curvature="0"
           id="path1449"
           style="fill:none;stroke:#808080;stroke-linecap:square;stroke-opacity:0.7"
           d="m 73.832727,295.488 75.045773,-0.10092 8.15715,-0.25975 4.89429,-0.36171 3.26286,-0.39029 3.26286,-0.55671 3.26286,-0.76823 3.26286,-1.02395 3.26286,-1.31913 3.26286,-1.64423 3.26286,-1.98718 3.26286,-2.33519 3.26286,-2.67771 3.26286,-3.00563 3.26286,-3.31286 3.26286,-3.59627 3.26286,-3.85394 4.89429,-6.20804 4.89429,-6.64596 4.89429,-7.00619 6.52572,-9.78049 8.15714,-12.71929 26.10288,-41.29836 4.89429,-7.24703 4.89429,-6.8152 3.26286,-4.23545 4.89429,-5.57036 1.63143,-1.29844 1.63143,-2.25526 1.63143,-0.18636 1.63143,-0.0332 1.63143,-6.27398 1.63143,9.34585 1.63143,3.72176 1.63143,-46.1831 3.26286,160.21714 1.63143,9.2363 1.63143,2.06398 1.63143,1.35813 1.63143,1.04138 1.63143,0.81556 1.63143,0.64512 3.26286,0.92333 3.26286,0.59006 3.26286,0.37689 4.89429,0.32271 6.52572,0.18994 13.05144,0.0923 60.3629,0.01 v 0"
           clip-path="url(#pb742183ebc)" />
      </g>
      <g
         id="line2d_49">
        <path
           inkscape:connector-curvature="0"
           id="path1452"
           style="fill:none;stroke:#808080;stroke-linecap:square;stroke-opacity:0.7"
           d="m 73.832727,295.488 75.045773,-0.10092 8.15715,-0.25945 4.89429,-0.36127 3.26286,-0.38925 3.26286,-0.55492 3.26286,-0.7645 3.26286,-1.01786 3.26286,-1.30915 3.26286,-1.62904 3.26286,-1.96575 3.26286,-2.30662 3.26286,-2.64108 3.26286,-2.96068 3.26286,-3.26002 3.26286,-3.53554 3.26286,-3.78591 4.89429,-6.09372 4.89429,-6.51944 4.89429,-6.87043 6.52572,-9.58937 8.15714,-12.47487 14.68287,-23.04995 9.78858,-15.156 6.52572,-9.67035 4.89429,-6.83634 3.26286,-4.29469 4.89429,-5.87431 1.63143,-1.26704 1.63143,-2.00816 1.63143,-1.75736 1.63143,1.4214 1.63143,-4.92449 1.63143,-1.2904 1.63143,17.26003 1.63143,-31.12906 1.63143,-8.541 1.63143,128.36556 1.63143,27.744 1.63143,2.9382 1.63143,1.41068 1.63143,1.05804 1.63143,0.82509 1.63143,0.65093 3.26286,0.92914 3.26286,0.59243 3.26286,0.37794 4.89429,0.32315 6.52572,0.19009 13.05144,0.0923 60.3629,0.01 v 0"
           clip-path="url(#pb742183ebc)" />
      </g>
      <g
         id="line2d_50">
        <path
           inkscape:connector-curvature="0"
           id="path1455"
           style="fill:none;stroke:#808080;stroke-linecap:square;stroke-opacity:0.7"
           d="m 73.832727,295.488 75.045773,-0.10092 8.15715,-0.2593 4.89429,-0.36052 3.26286,-0.38851 3.26286,-0.55284 3.26286,-0.76108 3.26286,-1.0116 3.26286,-1.29933 3.26286,-1.61445 3.26286,-1.94476 3.26286,-2.27864 3.26286,-2.60551 3.26286,-2.91736 3.26286,-3.20881 3.26286,-3.47674 3.26286,-3.72042 4.89429,-5.98372 4.89429,-6.39782 4.89429,-6.73959 6.52572,-9.40554 8.15714,-12.2388 13.05144,-20.12737 11.42001,-17.47751 6.52572,-9.59711 4.89429,-6.84096 4.89429,-6.35719 1.63143,-1.89593 1.63143,-2.10269 3.26286,-3.00325 1.63143,-2.67874 1.63143,0.60449 1.63143,-0.90964 1.63143,-8.07614 1.63143,13.45075 1.63143,1.04346 1.63143,-59.41786 1.63143,98.68125 1.63143,78.79682 1.63143,6.53402 1.63143,1.54598 1.63143,1.07695 1.63143,0.83506 1.63143,0.65689 3.26286,0.93524 3.26286,0.59481 3.26286,0.37883 4.89429,0.32361 6.52572,0.19023 13.05144,0.0923 60.3629,0.01 v 0"
           clip-path="url(#pb742183ebc)" />
      </g>
      <g
         id="line2d_51">
        <path
           inkscape:connector-curvature="0"
           id="path1458"
           style="fill:none;stroke:#808080;stroke-linecap:square;stroke-opacity:0.7"
           d="m 73.832727,295.488 75.045773,-0.10092 8.15715,-0.25915 4.89429,-0.35993 3.26286,-0.38746 3.26286,-0.55105 3.26286,-0.75751 3.26286,-1.00565 3.26286,-1.28966 3.26286,-1.59986 3.26286,-1.92437 3.26286,-2.25139 3.26286,-2.57098 3.26286,-2.87523 3.26286,-3.15925 3.26286,-3.42018 3.26286,-3.65715 4.89429,-5.87774 4.89429,-6.28068 4.89429,-6.61366 6.52572,-9.2284 8.15714,-12.0109 11.42001,-17.29263 13.05144,-19.71923 6.52572,-9.5139 4.89429,-6.82875 4.89429,-6.434 1.63143,-1.89132 3.26286,-3.97302 1.63143,-1.16998 1.63143,-2.5555 1.63143,-1.37018 1.63143,1.77685 1.63143,-7.28216 1.63143,0.39863 1.63143,20.05518 1.63143,-42.63758 1.63143,-4.44235 1.63143,140.19322 1.63143,21.65311 1.63143,2.06593 1.63143,1.10537 1.63143,0.84534 1.63143,0.66298 3.26286,0.94135 3.26286,0.59719 3.26286,0.37973 4.89429,0.3242 6.52572,0.19038 13.05144,0.0923 60.3629,0.01 v 0"
           clip-path="url(#pb742183ebc)" />
      </g>
      <g
         id="line2d_52">
        <path
           inkscape:connector-curvature="0"
           id="path1461"
           style="fill:none;stroke:#808080;stroke-linecap:square;stroke-opacity:0.7"
           d="m 73.832727,295.488 75.045773,-0.10092 8.15715,-0.25886 4.89429,-0.35947 4.89429,-0.63814 3.26286,-0.64631 3.26286,-0.87198 3.26286,-1.13619 3.26286,-1.43047 3.26286,-1.74411 3.26286,-2.06503 3.26286,-2.38268 3.26286,-2.68812 3.26286,-2.97571 3.26286,-3.24126 3.26286,-3.48359 4.89429,-5.62871 4.89429,-6.0449 4.89429,-6.39127 6.52572,-8.95273 6.52571,-9.32605 9.78858,-14.4366 21.20859,-31.51057 6.52572,-9.22632 4.89429,-6.55352 1.63143,-2.16015 3.26286,-3.90589 1.63143,-2.16029 1.63143,-1.29844 1.63143,-1.8355 1.63143,-2.86198 1.63143,1.52171 1.63143,-2.31406 1.63143,-9.25251 1.63143,18.0485 1.63143,-3.3596 1.63143,-71.13195 1.63143,120.66408 1.63143,72.41253 1.63143,4.47852 1.63143,1.17728 1.63143,0.85664 1.63143,0.66924 3.26286,0.9476 3.26286,0.59958 3.26286,0.38076 4.89429,0.32465 6.52572,0.19053 13.05144,0.0923 60.3629,0.01 v 0"
           clip-path="url(#pb742183ebc)" />
      </g>
      <g
         id="line2d_53">
        <path
           inkscape:connector-curvature="0"
           id="path1464"
           style="fill:none;stroke:#808080;stroke-linecap:square;stroke-opacity:0.7"
           d="m 73.832727,295.488 75.045773,-0.10077 8.15715,-0.25886 4.89429,-0.35888 4.89429,-0.63634 3.26286,-0.64379 3.26286,-0.86751 3.26286,-1.1286 3.26286,-1.41901 3.26286,-1.72743 3.26286,-2.04241 3.26286,-2.3535 3.26286,-2.65211 3.26286,-2.93239 3.26286,-3.19154 3.26286,-3.42763 4.89429,-5.53389 4.89429,-5.93936 4.89429,-6.2768 6.52572,-8.79033 6.52571,-9.15681 9.78858,-14.18191 22.84002,-33.37658 6.52572,-9.06184 4.89429,-6.466 1.63143,-2.04493 1.63143,-1.86453 1.63143,-2.19915 1.63143,-1.7051 1.63143,-1.2194 1.63143,-3.07172 1.63143,-0.65822 1.63143,1.74365 1.63143,-9.68954 1.63143,3.18946 1.63143,21.74987 1.63143,-55.41746 1.63143,5.55919 1.63143,146.72174 1.63143,15.85755 1.63143,1.46947 1.63143,0.87197 1.63143,0.67579 3.26286,0.9537 3.26286,0.60211 3.26286,0.3818 4.89429,0.3251 6.52572,0.19068 13.05144,0.0923 60.3629,0.01 v 0"
           clip-path="url(#pb742183ebc)" />
      </g>
      <g
         id="line2d_54">
        <path
           inkscape:connector-curvature="0"
           id="path1467"
           style="fill:none;stroke:#808080;stroke-linecap:square;stroke-opacity:0.7"
           d="m 73.832727,295.488 75.045773,-0.10077 8.15715,-0.25856 4.89429,-0.35844 4.89429,-0.63455 3.26286,-0.64126 3.26286,-0.86305 3.26286,-1.1213 3.26286,-1.40755 3.26286,-1.71121 3.26286,-2.02037 3.26286,-2.32493 3.26286,-2.61697 3.26286,-2.89072 3.26286,-3.14331 3.26286,-3.37344 4.89429,-5.4425 4.89429,-5.83739 4.89429,-6.16651 6.52572,-8.63344 6.52571,-8.99351 9.78858,-13.93512 24.47145,-35.17993 6.52572,-8.91149 4.89429,-6.35809 1.63143,-1.86065 3.26286,-4.16593 1.63143,-1.1088 1.63143,-2.31942 1.63143,-2.74023 1.63143,2.37018 1.63143,-4.15179 1.63143,-9.61825 1.63143,22.77546 1.63143,-9.66379 1.63143,-80.275514 1.63143,143.709564 1.63143,62.81899 1.63143,2.99655 1.63143,0.90934 1.63143,0.68248 3.26286,0.96025 3.26286,0.60464 3.26286,0.3827 4.89429,0.32554 6.52572,0.19083 13.05144,0.0923 60.3629,0.01 v 0"
           clip-path="url(#pb742183ebc)" />
      </g>
      <g
         id="line2d_55">
        <path
           inkscape:connector-curvature="0"
           id="path1470"
           style="fill:none;stroke:#808080;stroke-linecap:square;stroke-opacity:0.7"
           d="m 73.832727,295.488 75.045773,-0.10077 8.15715,-0.25841 4.89429,-0.35784 4.89429,-0.63292 3.26286,-0.63873 3.26286,-0.85858 3.26286,-1.11401 3.26286,-1.39653 3.26286,-1.69514 3.26286,-1.99879 3.26286,-2.29723 3.26286,-2.58274 3.26286,-2.85023 3.26286,-3.09672 4.89429,-5.0586 4.89429,-5.48998 4.89429,-5.85258 4.89429,-6.154 6.52572,-8.5809 8.15714,-11.1736 11.42001,-16.14186 17.94573,-25.46433 8.15715,-11.10484 4.89429,-6.36061 3.26286,-3.84515 1.63143,-2.25958 3.26286,-2.88179 1.63143,-3.44117 1.63143,0.25261 1.63143,1.2773 1.63143,-11.96223 1.63143,7.00589 1.63143,22.02361 1.63143,-69.40482 1.63143,22.30687 1.63143,146.95797 1.63143,10.89838 1.63143,1.06399 1.63143,0.69128 3.26286,0.96664 3.26286,0.60717 3.26286,0.38374 4.89429,0.32599 6.52572,0.19083 13.05144,0.0924 60.3629,0.01 v 0"
           clip-path="url(#pb742183ebc)" />
      </g>
      <g
         id="line2d_56">
        <path
           inkscape:connector-curvature="0"
           id="path1473"
           style="fill:none;stroke:#808080;stroke-linecap:square;stroke-opacity:0.7"
           d="m 73.832727,295.488 75.045773,-0.10077 8.15715,-0.25826 4.89429,-0.3571 4.89429,-0.63128 3.26286,-0.63635 3.26286,-0.85426 3.26286,-1.10672 3.26286,-1.38552 3.26286,-1.67965 3.26286,-1.97765 3.26286,-2.27015 3.26286,-2.54954 3.26286,-2.81093 3.26286,-3.05147 4.89429,-4.98046 4.89429,-5.40111 4.89429,-5.75478 4.89429,-6.04892 6.52572,-8.43263 8.15714,-10.98129 9.78858,-13.58532 22.84002,-31.85471 6.52572,-8.68956 4.89429,-6.22084 1.63143,-1.82225 1.63143,-2.18977 1.63143,-1.91796 1.63143,-1.03125 1.63143,-2.82626 1.63143,-2.341 1.63143,3.03733 1.63143,-6.33382 1.63143,-9.03698 1.63143,27.31159 1.63143,-18.08914 1.63143,-85.533272 1.63143,166.124802 1.63143,50.99758 1.63143,1.97199 1.63143,0.70988 3.26286,0.9735 3.26286,0.60969 3.26286,0.38464 4.89429,0.32658 6.52572,0.19098 13.05144,0.0924 60.3629,0.01 v 0"
           clip-path="url(#pb742183ebc)" />
      </g>
      <g
         id="line2d_57">
        <path
           inkscape:connector-curvature="0"
           id="path1476"
           style="fill:none;stroke:#808080;stroke-linecap:square;stroke-opacity:0.7"
           d="m 73.832727,295.488 75.045773,-0.10077 8.15715,-0.25796 4.89429,-0.35666 4.89429,-0.62964 3.26286,-0.63381 3.26286,-0.84995 3.26286,-1.09972 3.26286,-1.3748 3.26286,-1.66417 3.26286,-1.95712 3.26286,-2.2438 3.26286,-2.51724 3.26286,-2.77267 3.26286,-3.00742 4.89429,-4.90498 4.89429,-5.31508 4.89429,-5.66011 6.52572,-7.98474 6.52572,-8.37771 8.15715,-10.87233 11.42,-15.66791 17.94573,-24.71456 8.15715,-10.83139 9.78858,-12.29998 1.63143,-1.21314 1.63143,-1.76316 1.63143,-3.6247 1.63143,1.26405 1.63143,0.36915 1.63143,-13.95699 1.63143,11.7772 1.63143,20.5589 1.63143,-84.429684 1.63143,46.249934 1.63143,140.42007 1.63143,7.0559 1.63143,0.78758 1.63143,0.54927 3.26286,0.77299 3.26286,0.48585 4.89429,0.41321 6.52572,0.24397 11.42001,0.11566 42.41717,0.0185 h 21.20859 v 0"
           clip-path="url(#pb742183ebc)" />
      </g>
      <g
         id="line2d_58">
        <path
           inkscape:connector-curvature="0"
           id="path1479"
           style="fill:none;stroke:#808080;stroke-linecap:square;stroke-opacity:0.7"
           d="m 73.832727,295.488 75.045773,-0.10077 8.15715,-0.25782 4.89429,-0.35605 4.89429,-0.62801 3.26286,-0.63128 3.26286,-0.84563 3.26286,-1.09288 3.26286,-1.36408 3.26286,-1.64929 3.26286,-1.93686 3.26286,-2.21805 3.26286,-2.48584 3.26286,-2.73546 3.26286,-2.96499 4.89429,-4.8316 4.89429,-5.23186 4.89429,-5.56872 6.52572,-7.85256 6.52572,-8.23764 8.15715,-10.69133 11.42,-15.41649 19.57716,-26.55051 6.52572,-8.56497 6.52572,-8.13359 1.63143,-1.84458 1.63143,-2.25378 1.63143,-1.69304 1.63143,-1.06832 1.63143,-3.29618 1.63143,-1.70734 1.63143,3.45933 1.63143,-8.80566 1.63143,-7.34691 1.63143,31.30381 1.63143,-28.90401 1.63143,-85.182433 1.63143,185.629823 1.63143,38.15132 1.63143,1.28861 1.63143,0.55865 3.26286,0.77731 3.26286,0.48734 4.89429,0.41396 6.52572,0.24426 11.42001,0.11566 42.41717,0.0185 h 21.20859 v 0"
           clip-path="url(#pb742183ebc)" />
      </g>
      <g
         id="line2d_59">
        <path
           inkscape:connector-curvature="0"
           id="path1482"
           style="fill:none;stroke:#808080;stroke-linecap:square;stroke-opacity:0.7"
           d="m 73.832727,295.488 75.045773,-0.10077 8.15715,-0.25752 4.89429,-0.35561 4.89429,-0.62637 3.26286,-0.6289 3.26286,-0.84131 3.26286,-1.08603 3.26286,-1.35381 3.26286,-1.6344 3.26286,-1.91722 3.26286,-2.1929 3.26286,-2.45517 3.26286,-2.69944 3.26286,-2.92361 4.89429,-4.76059 4.89429,-5.15119 4.89429,-5.48015 6.52572,-7.72499 6.52572,-8.10189 8.15715,-10.51598 11.42,-15.17193 21.20859,-28.34016 6.52572,-8.41046 9.78858,-12.08979 1.63143,-1.03438 1.63143,-2.16223 1.63143,-3.61756 1.63143,2.31674 1.63143,-1.01056 1.63143,-15.49955 3.26286,34.39845 1.63143,-100.029711 1.63143,77.185481 1.63143,127.27551 1.63143,4.3383 1.63143,0.59556 3.26286,0.78178 3.26286,0.48898 4.89429,0.41485 6.52572,0.24441 11.42001,0.11566 42.41717,0.0185 h 21.20859 v 0"
           clip-path="url(#pb742183ebc)" />
      </g>
      <g
         id="line2d_60">
        <path
           inkscape:connector-curvature="0"
           id="path1485"
           style="fill:none;stroke:#808080;stroke-linecap:square;stroke-opacity:0.7"
           d="m 73.832727,295.488 75.045773,-0.10077 8.15715,-0.25737 4.89429,-0.35501 4.89429,-0.62459 3.26286,-0.62667 3.26286,-0.83714 3.26286,-1.07918 3.26286,-1.34354 3.26286,-1.61996 3.26286,-1.89787 3.26286,-2.16848 3.26286,-2.42526 3.26286,-2.66431 3.26286,-2.88342 4.89429,-4.69182 4.89429,-5.07319 4.89429,-5.39441 6.52572,-7.6013 6.52572,-7.97075 8.15715,-10.34599 11.42,-14.93421 22.84002,-30.07697 9.78858,-12.32319 3.26286,-3.72771 1.63143,-2.25795 1.63143,-1.45905 1.63143,-1.20064 1.63143,-3.70657 1.63143,-0.8562 1.63143,3.56174 1.63143,-11.50332 1.63143,-4.37209 1.63143,34.34233 1.63143,-42.45077 1.63143,-76.953122 1.63143,199.240592 1.63143,25.71782 1.63143,0.84727 3.26286,0.78803 3.26286,0.49061 4.89429,0.4156 6.52572,0.24456 11.42001,0.11581 42.41717,0.0185 h 21.20859 v 0"
           clip-path="url(#pb742183ebc)" />
      </g>
      <g
         id="line2d_61">
        <path
           inkscape:connector-curvature="0"
           id="path1488"
           style="fill:none;stroke:#808080;stroke-linecap:square;stroke-opacity:0.7"
           d="m 73.832727,295.488 75.045773,-0.10062 8.15715,-0.25737 4.89429,-0.35442 4.89429,-0.62295 3.26286,-0.62413 3.26286,-0.83313 3.26286,-1.07248 3.26286,-1.33357 3.26286,-1.60567 3.26286,-1.87911 3.26286,-2.14452 3.26286,-2.39623 3.26286,-2.63007 3.26286,-2.84442 4.89429,-4.62499 4.89429,-4.99743 4.89429,-5.3115 6.52572,-7.48162 6.52572,-7.84348 8.15715,-10.18135 9.78857,-12.5816 27.73431,-35.92032 6.52572,-8.10859 6.52572,-7.8024 1.63143,-0.9138 1.63143,-2.6143 1.63143,-3.39979 1.63143,3.34576 1.63143,-2.89563 1.63143,-16.37153 1.63143,23.65964 1.63143,10.94393 1.63143,-115.137189 3.26286,222.279819 1.63143,2.56071 3.26286,0.80663 3.26286,0.49225 4.89429,0.41634 6.52572,0.24486 11.42001,0.11581 42.41717,0.0185 h 21.20859 v 0"
           clip-path="url(#pb742183ebc)" />
      </g>
      <g
         id="line2d_62">
        <path
           inkscape:connector-curvature="0"
           id="path1491"
           style="fill:none;stroke:#808080;stroke-linecap:square;stroke-opacity:0.7"
           d="m 73.832727,295.488 75.045773,-0.10062 8.15715,-0.25707 4.89429,-0.35397 4.89429,-0.62131 3.26286,-0.62191 3.26286,-0.82896 3.26286,-1.06578 3.26286,-1.32375 3.26286,-1.59182 3.26286,-1.86051 3.26286,-2.12115 3.26286,-2.36779 3.26286,-2.59688 3.26286,-2.80661 4.89429,-4.55995 4.89429,-4.92418 4.89429,-5.23098 6.52572,-7.36566 6.52572,-7.72038 8.15715,-10.02149 9.78857,-12.38839 29.36574,-37.50649 6.52572,-7.96435 1.63143,-1.76836 1.63143,-1.95444 1.63143,-2.21656 1.63143,-1.22654 1.63143,-1.42765 1.63143,-4.0272 1.63143,0.19307 1.63143,3.26388 1.63143,-14.34401 1.63143,0.0808 1.63143,35.92107 3.26286,-117.138811 1.63143,203.318551 1.63143,15.31379 1.63143,0.57159 3.26286,0.62622 3.26286,0.39074 4.89429,0.32956 6.52572,0.19172 13.05144,0.0926 60.3629,0.01 v 0"
           clip-path="url(#pb742183ebc)" />
      </g>
      <g
         id="line2d_63">
        <path
           inkscape:connector-curvature="0"
           id="path1494"
           style="fill:none;stroke:#808080;stroke-linecap:square;stroke-opacity:0.7"
           d="m 73.832727,295.488 75.045773,-0.10062 8.15715,-0.25692 4.89429,-0.35338 4.89429,-0.61967 3.26286,-0.61952 3.26286,-0.82495 3.26286,-1.05938 3.26286,-1.31392 3.26286,-1.57813 3.26286,-1.8425 3.26286,-2.09822 3.26286,-2.34026 3.26286,-2.56443 4.89429,-4.22532 4.89429,-4.62232 4.89429,-4.95886 4.89429,-5.24169 6.52572,-7.3487 6.52572,-7.67468 8.15714,-9.93277 11.42001,-14.31127 26.10288,-32.90338 6.52572,-7.92758 3.26286,-3.61935 1.63143,-2.20078 1.63143,-1.75289 1.63143,-0.8626 3.26286,-6.05085 1.63143,4.28026 1.63143,-5.32684 1.63143,-16.28683 1.63143,30.32793 1.63143,1.70585 1.63143,-127.41543 1.63143,153.35028 1.63143,85.44501 1.63143,1.47364 3.26286,0.63471 3.26286,0.39192 4.89429,0.33001 6.52572,0.19187 13.05144,0.0926 60.3629,0.01 v 0"
           clip-path="url(#pb742183ebc)" />
      </g>
      <g
         id="line2d_64">
        <path
           inkscape:connector-curvature="0"
           id="path1497"
           style="fill:none;stroke:#808080;stroke-linecap:square;stroke-opacity:0.7"
           d="m 73.832727,295.488 75.045773,-0.10062 8.15715,-0.25663 4.89429,-0.35293 4.89429,-0.61818 3.26286,-0.61714 3.26286,-0.82092 3.26286,-1.05298 3.26286,-1.30425 3.26286,-1.56473 3.26286,-1.82479 3.26286,-2.07589 3.26286,-2.31332 3.26286,-2.53287 4.89429,-4.16995 4.89429,-4.55831 4.89429,-4.88742 4.89429,-5.16414 6.52572,-7.2378 6.52572,-7.55753 8.15714,-9.78154 11.42001,-14.09885 27.73431,-34.48747 6.52572,-7.76712 1.63143,-1.7249 3.26286,-4.14465 1.63143,-1.00922 1.63143,-1.74737 1.63143,-4.22503 1.63143,1.41454 1.63143,2.48316 1.63143,-17.24292 1.63143,6.2978 1.63143,35.22086 1.63143,-79.0058 1.63143,-26.024756 1.63143,195.015116 1.63143,8.1388 1.63143,0.40354 3.26286,0.49762 4.89429,0.41872 6.52572,0.2456 11.42001,0.11581 42.41717,0.0185 h 21.20859 v 0"
           clip-path="url(#pb742183ebc)" />
      </g>
      <g
         id="patch_3">
        <path
           inkscape:connector-curvature="0"
           id="path1500"
           style="fill:none;stroke:#000000;stroke-width:0.8;stroke-linecap:square;stroke-linejoin:miter"
           d="M 57.6,307.584 V 41.472" />
      </g>
      <g
         id="patch_4">
        <path
           inkscape:connector-curvature="0"
           id="path1503"
           style="fill:none;stroke:#000000;stroke-width:0.8;stroke-linecap:square;stroke-linejoin:miter"
           d="M 57.6,307.584 H 414.72" />
      </g>
    </g>
  </g>
  <defs
     id="defs1511">
    <clipPath
       id="pb742183ebc">
      <rect
         id="rect1508"
         y="41.472"
         x="57.6"
         width="357.12"
         height="266.112" />
    </clipPath>
  </defs>
  <text
     id="text1521"
     y="243.6445"
     x="166.32098"
     style="font-style:oblique;font-variant:normal;font-weight:normal;font-stretch:normal;font-size:16px;line-height:1.25;font-family:'DejaVu Sans';-inkscape-font-specification:'DejaVu Sans Oblique';font-variant-ligatures:normal;font-variant-caps:normal;font-variant-numeric:normal;font-variant-east-asian:normal;letter-spacing:0px;word-spacing:0px;white-space:pre;fill:#000000;fill-opacity:1;stroke:none;stroke-width:0.75;stroke-linecap:butt;stroke-linejoin:round"
     xml:space="preserve"><tspan
       style="font-style:oblique;font-variant:normal;font-weight:normal;font-stretch:normal;font-size:16px;font-family:'DejaVu Sans';-inkscape-font-specification:'DejaVu Sans Oblique';font-variant-ligatures:normal;font-variant-caps:normal;font-variant-numeric:normal;font-variant-east-asian:normal;stroke-width:0.75"
       y="243.6445"
       x="166.32098"
       id="tspan1519"
       sodipodi:role="line">t=0</tspan></text>
  <text
     id="text1525"
     y="132.38544"
     x="229.89061"
     style="font-style:normal;font-variant:normal;font-weight:normal;font-stretch:normal;font-size:16px;line-height:1.25;font-family:sans-serif;-inkscape-font-specification:'sans-serif Normal';font-variant-ligatures:normal;font-variant-caps:normal;font-variant-numeric:normal;font-variant-east-asian:normal;letter-spacing:0px;word-spacing:0px;white-space:pre;fill:#000000;fill-opacity:1;stroke:none;stroke-width:0.75;stroke-linecap:butt;stroke-linejoin:round"
     xml:space="preserve"><tspan
       style="font-style:normal;font-variant:normal;font-weight:normal;font-stretch:normal;font-size:16px;font-family:sans-serif;-inkscape-font-specification:'sans-serif Normal';font-variant-ligatures:normal;font-variant-caps:normal;font-variant-numeric:normal;font-variant-east-asian:normal;stroke-width:0.75"
       y="132.38544"
       x="229.89061"
       id="tspan1523"
       sodipodi:role="line">shock</tspan></text>
  <path
     sodipodi:nodetypes="ccc"
     inkscape:original-d="m 179.73798,249.51077 c 0.41224,2.66066 0.82372,5.32051 1.23447,7.97972 4.02749,1.89296 8.05408,3.7851 12.08,5.67652"
     inkscape:path-effect="#path-effect1529"
     inkscape:connector-curvature="0"
     id="path1527"
     d="m 179.73798,249.51077 c 0.41162,2.66076 0.8231,5.32061 3.04261,7.59648 2.2195,2.27587 6.24609,4.16801 10.27186,6.05976"
     style="fill:none;stroke:#000000;stroke-width:1.41732;stroke-linecap:butt;stroke-linejoin:miter;stroke-miterlimit:4;stroke-dasharray:none;stroke-opacity:1;marker-end:url(#Arrow2Mend)" />
  <path
     sodipodi:nodetypes="ccc"
     inkscape:original-d="m 272.78521,134.46141 c 2.45328,1.88009 4.88885,3.74643 7.33134,5.6179 0.96056,3.80679 1.91934,7.60877 2.88006,11.42065"
     inkscape:path-effect="#path-effect2079"
     inkscape:connector-curvature="0"
     id="path2077"
     d="m 272.78521,134.46141 c 2.45337,1.87998 4.88893,3.74632 6.59015,6.58557 1.70122,2.83925 2.66,6.64123 3.62125,10.45298"
     style="fill:none;stroke:#000000;stroke-width:0.75px;stroke-linecap:butt;stroke-linejoin:miter;stroke-opacity:1;marker-end:url(#marker2083)" />
</svg>
